<?xml version="1.0" encoding="utf-8"?>
<svg viewBox="138.7547 201.6347 260 82.3422" xmlns="http://www.w3.org/2000/svg" xmlns:bx="https://boxy-svg.com">
    <text style="font-family: 'Pacifico'; font-size: 36px; white-space: pre;" x="195.571" y="267.125"
          transform="matrix(0.99727201461792, 0, 0, 1, 0.3785739839076996, 7.105427357601002e-15)">Maita'i Somatopathie</text>
    <g transform="matrix(0.39553701877594, 0, 0, 0.3628590404987335, 200.1875915527344, 174.2945709228516)"
       style="">
        <path style=""
              d="M 193.414 173.181 C 198.932 170.073 210.694 167.174 216.873 168.106 C 224.151 169.204 237.154 172.227 244.615 171.724 C 260.853 170.629 271.876 160.241 285.634 153.078 C 291.528 150.01 297.792 147.171 304.635 147.573 C 307.43 147.737 310.381 148.852 312.958 149.86 C 314.032 150.28 315.117 150.671 316.177 151.125 C 316.591 151.303 317.572 152.083 317.42 151.658 C 314.093 142.345 297.501 143.992 290.962 146.33 C 277.359 151.194 265.606 161.382 251.895 166.396 C 243.016 169.643 223.787 164.224 211.325 165.264 C 197.41 166.425 190.5 174.822 193.414 173.181 Z" />
        <path style=""
              d="M 283.452 158.714 C 284.276 158.287 281.838 161.266 280.789 162.7 C 279.401 164.596 278.805 165.774 277.644 167.817 C 274.573 173.221 277.314 177.584 283.199 177.278 C 296.769 176.573 307.886 168.367 321.706 167.766 C 327.354 167.521 332.4 169.771 337.549 172.016 C 338.703 172.519 345.942 174.84 344.972 174.868 C 336.581 175.108 330.614 170.927 319.551 172.434 C 307.757 174.04 296.781 180.922 284.848 181.718 C 272.981 182.51 270.191 173.779 276.717 165.191 C 278.947 162.256 282.234 159.346 283.452 158.714 Z" />
        <path style=""
              d="M 321.135 160.542 C 320.016 163.851 320.467 154.027 322.477 146.609 C 325.508 135.423 344.697 134.898 348.736 141.919 C 350.724 145.374 352.194 147.9 350.46 152.55 C 348.199 158.613 346.771 158.244 344.704 160.493 C 342.588 162.796 355.664 142.631 336.406 142.025 C 325.635 141.686 322.118 157.637 321.135 160.542 Z" />
        <path style=""
              d="M 253.197 131.509 C 252.485 131.509 254.873 139.326 255.323 140.187 C 257.463 144.281 264.637 154.895 270.533 153.748 C 270.58 153.739 263.859 146.801 263.349 146.143 C 259.836 141.61 254.251 131.509 253.197 131.509 Z" />
        <path style=""
              d="M 230.387 163.075 C 235.849 158.61 238.775 144.812 238.143 137.088 C 237.712 131.829 236.487 123.839 240.003 119.288 C 243.88 114.269 252.04 114.365 254.526 108.258 C 257.223 101.634 255.975 87.369 264.621 84.328 C 277.212 79.9 278.419 97.373 275.027 104.431 C 273.07 108.503 270.671 111.296 266.493 113.385 C 265.106 114.078 262.161 113.257 260.968 112.533 C 260.001 111.946 258.214 109.499 258.157 110.629 C 257.964 114.462 262.776 117.443 266.304 116.739 C 277.792 114.446 284.71 97.571 278.259 88.047 C 276.695 85.738 273.528 82.651 270.732 81.849 C 269.766 81.572 268.576 81.771 267.891 81.035 C 266.683 79.738 267.777 77.15 265.438 75.842 C 261.627 73.711 257.577 78.9 258.586 82.861 C 259.064 84.735 264.423 72.854 265.526 80.916 C 265.593 81.405 262.674 82.344 261.876 82.734 C 259.419 83.936 257.998 86.773 256.596 88.977 C 253.381 94.03 254.702 100.93 252.046 105.759 C 249.847 109.756 241.513 111.145 238.32 114.348 C 231.078 121.614 234.067 136.983 233.856 145.397 C 233.725 150.61 229.588 163.728 230.387 163.075 Z" />
        <path style=""
              d="M 268.96 123.401 C 272.237 129.151 274.212 135.592 277.905 141.201 C 278.594 142.247 283.59 145.477 283.595 145.824 C 283.612 147.127 275.367 144.165 274.628 142.894 C 271.652 137.777 269.098 131.415 266.341 126.156 C 265.26 124.094 259.009 117.281 258.479 116.718 C 257.238 115.399 267.828 121.415 268.96 123.401 Z" />
    </g>
    <g id="layer1"
       transform="matrix(1.7518349885940554, 0, 0, 1.6186630725860598, -161.02670288085938, 4.921237945556648)"
       style="">
        <g transform="matrix(0.26458333,0,0,0.26458333,117.07828,102.33537)">
            <path
                  d="m 330.16791,198.85026 c 1.28562,0.38915 1.3098,0.62821 0.27431,2.70993 -3.17462,6.38185 -11.79098,11.76882 -20.31934,12.70459 -3.18973,0.35021 -3.86126,0.53454 -3.86126,1.06168 0,1.31886 -3.23912,10.17361 -5.14625,14.06845 -7.21789,14.73998 -18.60193,25.12947 -30.24316,27.60069 -3.05544,0.6487 -9.07097,0.44087 -11.38236,-0.39317 -0.87298,-0.31493 -1.66538,-0.52748 -1.72917,-0.46401 -0.0644,0.0645 0.0947,1.91385 0.35256,4.0963 0.25787,2.18245 0.38512,4.1151 0.28205,4.28097 -0.29345,0.47175 -2.43092,0.3465 -3.50536,-0.20515 -0.83606,-0.42911 -1.12079,-0.98681 -2.01459,-3.94152 -0.56879,-1.88026 -1.40853,-4.58416 -1.85139,-5.95978 -1.28497,-3.99255 -2.57899,-12.28891 -3.58763,-22.99974 -0.58726,-6.2351 -0.58726,-33.91202 -3.4e-4,-41.2988 2.07569,-26.12234 5.15596,-44.73097 10.08765,-60.94092 3.07458,-10.10645 4.58047,-13.37947 6.43187,-13.98116 1.06605,-0.3465 2.35034,-0.21489 3.79413,0.38915 0.88137,0.36901 0.72423,1.67244 -0.76756,6.37312 -1.31081,4.12988 -4.16411,17.04768 -3.92338,17.76184 0.0698,0.20684 0.31763,0 0.56374,-0.47006 1.25373,-2.39566 6.69443,-9.0656 10.57216,-12.96044 4.81382,-4.83498 8.89939,-8.05663 12.25701,-9.66527 1.98604,-0.95155 2.48465,-1.04556 5.54009,-1.04556 3.08902,0 3.50268,0.0802 5.17074,1.00427 3.29618,1.82555 4.73425,4.80444 4.73425,9.8073 0,5.21707 -1.44075,10.37506 -4.90515,17.56038 -4.65567,9.65655 -11.39613,19.67569 -20.84885,30.9909 l -4.09529,4.90214 2.41749,-0.82565 c 4.29775,-1.46763 7.36897,-1.92426 11.61738,-1.72817 8.99845,0.41566 14.81888,4.00731 18.50253,11.41794 2.54004,5.10997 3.1508,8.46121 2.88756,15.848 -0.11247,3.15617 -0.29345,6.34593 -0.40494,7.13497 l -0.20147,1.42699 1.1416,-0.19843 c 7.92399,-1.3783 13.83845,-4.61103 17.45025,-9.53868 2.80563,-3.82768 3.81259,-4.79469 4.71008,-4.52305 z M 256.01738,188.7009 c -0.30386,2.69383 0.11618,2.28318 7.48415,-7.31964 13.47348,-17.56038 25.34704,-36.72438 29.76972,-48.04764 2.67534,-6.84955 2.92347,-12.69553 0.65003,-15.31077 -0.59632,-0.68597 -1.3924,-0.71483 -3.27267,-0.11785 -7.94447,2.52158 -21.33537,16.26804 -28.30881,29.06059 -1.17382,2.15358 -1.49615,3.22331 -2.22476,7.38677 -1.50422,8.59552 -3.12831,21.66508 -3.71287,29.88286 -0.11214,1.57808 -0.28405,3.57452 -0.38478,4.46564 z m 40.70584,29.98361 c 0.63057,-1.81312 1.14395,-3.42646 1.14429,-3.593 0,-0.36832 -12.18818,-0.32367 -16.95601,0.0621 -7.82327,0.63291 -14.03321,3.53054 -18.79164,8.76844 -3.44693,3.79413 -6.22268,9.41075 -6.22268,12.59111 0,3.22331 1.36487,14.04124 1.90646,15.10931 0.2995,0.59094 1.14897,1.49315 1.88766,2.00484 3.50806,2.42991 10.44223,0.82732 16.78814,-3.88008 7.88404,-5.84832 15.58542,-17.66583 20.2438,-31.06276 z m 2.3866,-8.93133 c 0.45396,-2.39667 0.59565,-4.73459 0.57113,-9.40135 -0.0312,-5.77511 -0.0974,-6.42379 -0.94013,-9.23346 -0.50364,-1.67881 -1.3088,-3.76793 -1.81143,-4.70068 -1.33901,-2.48499 -4.0446,-5.0022 -6.28078,-5.84429 -4.06173,-1.52939 -11.24805,-0.5624 -17.29178,2.32717 -5.13718,2.45611 -7.36866,4.06508 -10.55907,7.61342 -3.35092,3.72697 -6.22572,6.48022 -6.76629,6.48022 -0.59362,0 -0.8008,4.59996 -0.78602,17.45967 l 0.0138,11.91957 0.70981,-1.00729 c 1.39577,-1.98101 7.17694,-7.42102 9.0609,-8.52636 2.53905,-1.48945 5.47294,-2.65085 8.42764,-3.33614 2.01591,-0.46772 4.29777,-0.56072 13.73269,-0.56072 h 11.3152 l 0.60437,-3.18975 z m -74.12487,-69.7494 c 6.52592,-6.52588 14.02009,-11.57847 22.4825,-15.15778 2.49344,-1.05464 5.02054,-1.95923 7.58127,-2.71374 l -0.22939,0.67713 -0.47613,1.46077 -0.40239,1.27107 c -1.79542,0.58847 -3.57327,1.25497 -5.33356,1.9995 -8.112,3.43111 -15.29646,8.27512 -21.55337,14.53202 -6.25687,6.25687 -11.10086,13.4413 -14.53197,21.55331 -3.55193,8.39772 -5.32789,17.19529 -5.32789,26.39271 0,9.1975 1.77597,17.99509 5.32789,26.39277 3.43111,8.11209 8.2751,15.29644 14.53197,21.55306 5.46676,5.46691 11.64164,9.85509 18.52462,13.16456 l 0.0909,0.45193 0.0216,0.10136 0.32911,1.46173 0.0351,0.14471 0.3773,1.44962 0.002,0.007 c -8.04047,-3.54844 -15.19029,-8.45228 -21.44946,-14.71152 -6.52592,-6.52605 -11.57854,-14.02022 -15.15784,-22.4825 -3.70603,-8.76232 -5.55905,-17.93985 -5.55905,-27.53258 0,-9.59291 1.85301,-18.77041 5.55905,-27.53251 3.5793,-8.46241 8.63191,-15.95658 15.15784,-22.4825 z m 100.02965,0 c 6.52605,6.52588 11.57869,14.02005 15.1579,22.4825 3.70629,8.76202 5.55943,17.93952 5.55943,27.53251 0,9.59274 -1.85314,18.77026 -5.55943,27.53258 -3.57921,8.46228 -8.63185,15.95645 -15.1579,22.4825 -6.52563,6.52563 -14.01969,11.57826 -22.48218,15.1579 -8.76202,3.70586 -17.93952,5.55879 -27.53251,5.55879 -0.23317,0 -0.46609,-0.001 -0.69876,-0.003 l 0.74332,-0.22111 0.21413,-0.0695 1.41271,-0.49787 0.20049,-0.0759 1.38734,-0.5648 0.18716,-0.0816 1.36031,-0.62728 0.17441,-0.0848 1.33194,-0.68528 0.1625,-0.088 0.48092,-0.27299 c 6.70063,-0.6747 13.17938,-2.33527 19.43625,-4.98172 8.11188,-3.4309 15.29634,-8.27486 21.55337,-14.5319 6.25704,-6.25661 11.10101,-13.44097 14.5319,-21.55306 3.55202,-8.39768 5.32802,-17.19528 5.32802,-26.39277 0,-9.19725 -1.776,-17.99482 -5.32802,-26.39271 -3.4309,-8.11192 -8.27486,-15.29636 -14.5319,-21.55331 -4.99125,-4.99115 -10.57265,-9.08323 -16.74418,-12.27623 l 0.10281,-1.06919 0.0167,-0.24243 0.0626,-1.4966 0.004,-0.1544 0.002,-0.22147 c 6.90046,3.41097 13.10888,7.87474 18.62526,13.39134 z" />
        </g>
    </g>
</svg>
