<svg viewBox="0 35 550 400" xmlns="http://www.w3.org/2000/svg" companyname="Bonzi Somato" version="1.1" companytagline="Soin du corps et de l'esprit" xmlns:xlink="http://www.w3.org/1999/xlink" ><g fill="currentColor" fill-rule="nonzero" stroke="none" stroke-width="1" stroke-linecap="butt" stroke-linejoin="miter" stroke-miterlimit="10" stroke-dasharray="" stroke-dashoffset="0" font-family="none" font-weight="none" font-size="none" text-anchor="none" style="mix-blend-mode: normal"><g data-paper-data="{&quot;isGlobalGroup&quot;:true,&quot;bounds&quot;:{&quot;x&quot;:89.46948410093738,&quot;y&quot;:115,&quot;width&quot;:371.0610317981252,&quot;height&quot;:240}}">
    
    <g><path d="M125.86741,290.91344c-3.25807,7.67974 -5.58526,15.88309 -7.97064,23.85373c-2.44355,8.087 -5.06164,16.17399 -6.6325,24.55188c-0.52362,2.44355 6.86522,2.67627 7.5052,0.34908c1.22178,-6.22524 2.90899,-12.33412 4.77075,-18.38482c1.4545,-3.37443 3.60715,-6.86522 5.29436,-9.59967c3.66533,-5.93434 7.7961,-12.04322 13.43954,-16.23217c3.54897,-2.61809 11.11235,-4.71257 13.09046,-0.52362c1.27996,2.73445 -1.10542,6.39978 -3.49079,8.66879c-3.43261,3.31625 -7.85428,5.64344 -12.15958,7.67974c-2.15265,1.04724 -4.65439,1.86175 -6.57432,3.37443c-0.69816,0.69816 -0.11636,1.80357 0.8727,1.51268c2.73445,-1.62903 5.35254,-2.85081 8.61061,-3.08353c5.93434,-0.40726 11.46142,3.72351 11.05417,10.00693c-0.63998,9.13423 -11.92686,16.17399 -19.3157,18.67572c-8.26153,2.67627 -17.04669,1.39632 -11.11235,-7.27248c2.61809,-3.83987 7.33066,-7.56338 11.11235,-7.97064c1.22178,-0.2909 0.93088,-1.80357 -0.2909,-1.68721c-4.13077,0.2909 -9.36695,4.36349 -12.33412,8.72697c-6.86522,10.12329 3.83987,13.20682 12.74138,10.23965c8.49425,-2.73445 20.01386,-9.65785 21.29381,-20.7702c0.69816,-5.7598 -4.77075,-11.28689 -10.29783,-11.57778c-0.75634,0 -1.39632,-0.05818 -2.03629,-0.05818c2.03629,-1.04724 4.01441,-2.15265 5.81798,-3.49079c3.31625,-2.38537 6.10888,-4.8871 7.73792,-8.61061c0.52362,-1.10542 0.63998,-2.50173 0.46544,-3.66533c-0.81452,-4.65439 -6.16706,-5.23618 -9.94875,-4.47985c-8.49425,1.62903 -16.05763,13.03228 -20.13022,19.6066c-0.63998,1.10542 -1.04724,1.62903 -1.27996,2.09447c2.15265,-7.15612 4.24713,-14.4286 7.15612,-21.29381c0.40726,-1.1636 -6.22524,-2.96717 -7.38884,-0.63998z" ></path><path d="M164.38245,311.97453c-3.19989,0.8727 -5.81798,5.4689 -4.65439,8.087c1.1636,2.50173 4.07259,2.85081 6.80704,2.90899c3.19989,0.05818 5.93434,-3.19989 6.16706,-6.39978c4.8871,3.37443 8.61061,3.54897 13.03228,-0.34908c0.63998,-0.8727 -0.11636,-1.80357 -1.10542,-1.33814c-5.87616,4.59621 -8.37789,1.80357 -13.38136,-2.21083c-1.4545,-1.1636 -4.24713,-1.39632 -6.86522,-0.69816zM167.52416,319.88699c-1.86175,-0.8727 0.52362,-5.23618 2.61809,-5.11982c1.39632,0.81452 -0.40726,6.10888 -2.61809,5.11982z" ></path><path d="M190.33065,321.45784c1.33814,-1.57086 3.14171,-3.37443 5.00346,-4.59621c2.44355,-1.4545 2.85081,-0.5818 2.67627,0.81452c-0.23272,1.97811 -0.17454,3.83987 3.14171,4.07259c3.72351,0.2909 6.98158,-3.43261 9.65785,-5.29436c1.04724,-0.69816 0.23272,-2.03629 -0.8727,-1.51268c-1.51268,1.27996 -6.22524,5.64344 -8.66879,5.00346c-0.46544,-0.11636 -0.63998,-0.63998 -0.52362,-1.80357c0.40726,-3.31625 -0.81452,-6.16706 -6.28342,-2.79263c-1.22178,0.75634 -2.26901,1.68721 -3.31625,2.67627l1.33814,-5.23618c0.40726,-1.1636 -6.69068,-2.38537 -7.15612,-1.22178c-1.4545,3.66533 -2.50173,6.51614 -2.50173,9.42513c-0.23272,1.86175 6.69068,2.38537 7.5052,0.46544z"></path><path d="M210.11179,324.54138c2.44355,-1.74539 3.54897,-1.51268 4.53803,-1.4545c0.17454,0 0.2909,0.05818 0.40726,0.17454c-4.07259,2.50173 -7.73792,5.178 -11.92686,10.23965c-1.27996,1.57086 -2.90899,4.24713 -1.51268,6.6325c2.79263,4.82893 10.82145,1.86175 14.89403,-3.66533c3.08353,-4.07259 5.7598,-10.99599 2.96717,-13.96316c2.79263,-1.74539 5.7598,-3.66533 9.01787,-6.28342c0.63998,-0.8727 -0.11636,-1.80357 -1.10542,-1.33814c-3.54897,2.85081 -6.6325,4.82893 -9.48331,6.57432c-1.33814,-0.5818 -2.67627,-0.46544 -4.13077,-0.05818c2.03629,-1.97811 4.59621,-4.01441 5.81798,-5.7598c1.74539,-2.50173 1.39632,-4.30531 -1.4545,-4.24713c-2.03629,0.05818 -6.39978,1.68721 -8.20335,3.49079c-0.69816,0.69816 0.05818,2.15265 0.8727,1.51268c2.38537,-1.80357 5.7598,-2.96717 6.45796,-2.44355c0.52362,0.40726 -3.60715,3.72351 -8.37789,8.95969c-0.63998,0.75634 0.11636,2.44355 1.22178,1.62903zM209.41364,335.30464c-1.04724,1.1636 -3.02535,3.78169 -4.65439,4.01441c-3.37443,0.52362 -1.62903,-2.73445 -0.05818,-4.71257c3.54897,-4.36349 6.9234,-7.03976 10.53055,-9.42513c-0.75634,2.85081 -3.72351,7.73792 -5.81798,10.12329z" data-paper-data="{&quot;glyphName&quot;:&quot;z&quot;,&quot;glyphIndex&quot;:3,&quot;word&quot;:1}" id="element-id-58242"></path><path d="M236.69997,305.10932c-0.98906,-0.2909 -2.67627,-0.2909 -3.31625,-0.05818c-1.27996,0.46544 -1.74539,2.09447 -1.62903,3.37443c0.11636,0.98906 1.51268,1.04724 2.90899,0.98906c1.27996,-0.05818 4.36349,-3.60715 2.03629,-4.30531zM227.50756,313.77811c-1.74539,2.73445 -4.94528,8.20335 -0.81452,9.89057c6.39978,2.55991 13.20682,-2.44355 18.85026,-7.33066c0.81452,-0.69816 0,-2.15265 -0.75634,-1.4545c-4.71257,4.07259 -11.92686,8.66879 -12.50866,6.57432c-0.63998,-2.26901 1.27996,-4.8871 2.50173,-6.74886c0.75634,-2.09447 -5.99252,-2.96717 -7.27248,-0.93088z" data-paper-data="{&quot;glyphName&quot;:&quot;i&quot;,&quot;glyphIndex&quot;:4,&quot;lastGlyphOfWord&quot;:true,&quot;word&quot;:1}" id="element-id-18972"></path><path d="M293.54166,305.80747c4.07259,-1.27996 8.84333,-6.9234 10.35601,-10.82145c1.22178,-3.14171 0.2909,-6.3416 -3.19989,-7.27248c-8.14517,-2.15265 -18.85026,2.85081 -25.13368,7.09794c-5.35254,3.66533 -10.18147,8.78515 -10.18147,13.265c0,10.82145 24.7846,4.13077 24.7846,10.00693c0,2.73445 -3.43261,7.7961 -5.00346,9.54149c-3.95623,4.30531 -12.3923,12.6832 -18.79208,10.18147c-1.57086,-0.5818 -1.27996,-1.97811 -0.46544,-3.37443c1.33814,-2.26901 3.89805,-4.77075 6.28342,-5.7598c1.1636,-0.52362 0.5818,-1.97811 -0.63998,-1.62903c-3.08353,1.22178 -6.16706,4.42167 -7.62156,7.5052c-0.98906,1.97811 -0.2909,4.24713 1.39632,5.7598c6.57432,5.99252 21.64289,-2.09447 28.39175,-13.38136c1.62903,-2.79263 2.61809,-5.178 2.61809,-7.03976c0,-10.29783 -26.53,-3.83987 -26.53,-10.00693c0,-8.26153 21.81743,-21.46835 31.00984,-18.32664c1.39632,0.40726 2.03629,1.74539 0.98906,3.83987c-1.51268,3.08353 -5.4689,7.67974 -8.90151,8.72697c-0.81452,0.5818 -0.40726,1.80357 0.63998,1.68721z" data-paper-data="{&quot;glyphName&quot;:&quot;S&quot;,&quot;glyphIndex&quot;:5,&quot;firstGlyphOfWord&quot;:true,&quot;word&quot;:2}" id="element-id-34381"></path><path d="M305.00308,311.97453c-3.19989,0.8727 -5.81798,5.4689 -4.65439,8.087c1.1636,2.50173 4.07259,2.85081 6.80704,2.90899c3.19989,0.05818 5.93434,-3.19989 6.16706,-6.39978c4.8871,3.37443 8.61061,3.54897 13.03228,-0.34908c0.63998,-0.8727 -0.11636,-1.80357 -1.10542,-1.33814c-5.87616,4.59621 -8.37789,1.80357 -13.38136,-2.21083c-1.4545,-1.1636 -4.24713,-1.39632 -6.86522,-0.69816zM308.14479,319.88699c-1.86175,-0.8727 0.52362,-5.23618 2.61809,-5.11982c1.39632,0.81452 -0.40726,6.10888 -2.61809,5.11982z" data-paper-data="{&quot;glyphName&quot;:&quot;o&quot;,&quot;glyphIndex&quot;:6,&quot;word&quot;:2}" id="element-id-28606"></path><path d="M325.36602,312.03271c-0.2909,2.67627 -1.33814,5.41072 -1.68721,8.087c-0.23272,1.68721 6.28342,1.97811 7.33066,0.63998c2.61809,-1.91993 4.59621,-4.59621 6.80704,-6.86522c0.34908,-0.34908 0.81452,-0.81452 1.33814,-1.22178c1.51268,-1.04724 2.61809,-0.75634 2.26901,1.1636c-0.23272,1.57086 -1.22178,3.31625 -1.22178,4.71257c0.17454,0.81452 0.81452,1.10542 1.4545,0.63998c1.22178,-1.27996 2.96717,-3.02535 4.65439,-4.36349c2.44355,-1.97811 2.09447,-0.2909 1.86175,2.26901c-0.40726,4.36349 0.81452,5.64344 2.79263,6.16706c4.47985,1.1636 8.78515,-3.78169 12.33412,-6.86522c0.98906,-0.75634 0.17454,-2.03629 -0.93088,-1.51268c-2.09447,1.86175 -7.73792,7.62156 -10.35601,6.45796c-1.04724,-0.46544 -1.51268,-1.74539 -1.04724,-4.77075c0.11636,-0.75634 0.2909,-1.68721 0.2909,-2.55991c0,-2.32719 -2.21083,-2.85081 -3.60715,-2.15265c-1.1636,0.5818 -2.44355,1.57086 -3.60715,2.61809c0,-0.63998 0,-1.27996 -0.05818,-1.74539c-0.52362,-3.08353 -3.25807,-3.19989 -5.70162,-1.57086c-1.51268,1.04724 -2.85081,2.79263 -3.89805,3.89805l-1.86175,1.97811c-0.2909,0.2909 -0.52362,0.5818 -0.81452,0.81452c0.46544,-1.91993 0.98906,-3.83987 1.22178,-5.70162c0,-1.91993 -7.27248,-2.26901 -7.56338,-0.11636z" data-paper-data="{&quot;glyphName&quot;:&quot;m&quot;,&quot;glyphIndex&quot;:7,&quot;word&quot;:2}" id="element-id-10017"></path><path d="M374.00435,313.42903c-2.96717,-2.73445 -8.49425,-0.98906 -11.40324,1.04724c-1.27996,0.8727 -2.44355,3.08353 -1.80357,4.65439c1.22178,3.25807 5.93434,1.04724 8.66879,-0.52362c0.46544,-0.23272 4.07259,-2.26901 5.64344,-2.96717c-0.11636,1.39632 -0.63998,2.73445 -0.5818,4.13077c0,0.40726 0.11636,0.81452 0.23272,1.22178c0.5818,1.80357 3.14171,2.90899 5.29436,2.96717c6.22524,0.23272 12.15958,-4.8871 15.12675,-7.97064c0.46544,-0.98906 -0.52362,-1.74539 -1.33814,-1.10542c-2.67627,2.73445 -11.57778,9.42513 -11.63596,4.42167c0,-1.57086 0.75634,-3.31625 0.46544,-4.8871c-0.8727,-2.85081 -5.81798,-1.51268 -8.43607,-0.46544c-0.05818,-0.17454 -0.11636,-0.34908 -0.23272,-0.52362zM368.59362,317.09436c-2.38537,1.33814 -5.00346,2.50173 -5.52708,1.4545c-1.33814,-2.73445 6.9234,-5.64344 9.19241,-4.42167l0.40726,0.46544c-0.46544,0.2909 -2.21083,1.51268 -4.07259,2.50173z" data-paper-data="{&quot;glyphName&quot;:&quot;a&quot;,&quot;glyphIndex&quot;:8,&quot;word&quot;:2}" id="element-id-63196"></path><path d="M393.90185,303.36392c0.05818,-0.11636 0.11636,-0.23272 0.11636,-0.2909c1.33814,-1.33814 4.24713,-1.1636 6.16706,-1.04724c-3.02535,5.00346 -7.44702,12.04322 -7.97064,17.45395c-0.40726,3.72351 1.57086,6.10888 3.95623,6.74886c6.98158,1.97811 14.60313,-5.178 18.85026,-10.06511c0.63998,-0.8727 -0.11636,-1.80357 -1.10542,-1.33814c-3.66533,3.95623 -8.55243,8.14517 -11.46142,8.55243c-4.77075,0.63998 -2.15265,-6.28342 -1.39632,-8.20335l0.8727,-2.03629l1.57086,-3.19989c1.22178,-2.32719 1.22178,-2.21083 2.38537,-4.30531l1.80357,-3.08353c3.37443,0.23272 6.80704,0.2909 9.54149,-0.8727c0.8727,-0.63998 0.46544,-1.80357 -0.5818,-1.62903c-2.09447,0.93088 -5.06164,0.98906 -7.97064,0.81452c1.33814,-2.15265 2.79263,-4.36349 3.95623,-6.6325c0.2909,-1.74539 -6.16706,-2.73445 -7.38884,-0.63998c-1.27996,2.21083 -2.85081,4.71257 -4.07259,6.74886h-0.17454c-1.91993,-0.05818 -7.73792,-0.46544 -8.66879,2.38537c-0.17454,1.04724 0.98906,1.4545 1.57086,0.63998z" data-paper-data="{&quot;glyphName&quot;:&quot;t&quot;,&quot;glyphIndex&quot;:9,&quot;word&quot;:2}" id="element-id-9037"></path><path d="M417.17377,311.97453c-3.19989,0.8727 -5.81798,5.4689 -4.65439,8.087c1.1636,2.50173 4.07259,2.85081 6.80704,2.90899c3.19989,0.05818 5.93434,-3.19989 6.16706,-6.39978c4.8871,3.37443 8.61061,3.54897 13.03228,-0.34908c0.63998,-0.8727 -0.11636,-1.80357 -1.10542,-1.33814c-5.87616,4.59621 -8.37789,1.80357 -13.38136,-2.21083c-1.4545,-1.1636 -4.24713,-1.39632 -6.86522,-0.69816zM420.31548,319.88699c-1.86175,-0.8727 0.52362,-5.23618 2.61809,-5.11982c1.39632,0.81452 -0.40726,6.10888 -2.61809,5.11982z" data-paper-data="{&quot;glyphName&quot;:&quot;o&quot;,&quot;glyphIndex&quot;:10,&quot;lastGlyphOfWord&quot;:true,&quot;word&quot;:2}" id="element-id-43426"></path></g>
<g><path d="M128.77404,349.41683c-0.04898,-0.04898 -0.13818,-0.11544 -0.26761,-0.1994c-0.12943,-0.08396 -0.28685,-0.16617 -0.47226,-0.24663c-0.18541,-0.08046 -0.38655,-0.14867 -0.60344,-0.20465c-0.21689,-0.05597 -0.43728,-0.08396 -0.66117,-0.08396c-0.3988,0 -0.69615,0.07346 -0.89205,0.22039c-0.1959,0.14693 -0.29385,0.35332 -0.29385,0.61919c0,0.15392 0.03673,0.28161 0.11019,0.38306c0.07346,0.10145 0.18016,0.19065 0.32009,0.26761c0.13993,0.07696 0.31659,0.14693 0.52998,0.20989c0.21339,0.06297 0.46002,0.12943 0.73988,0.1994c0.36382,0.09795 0.6944,0.2029 0.99175,0.31484c0.29735,0.11194 0.54922,0.25187 0.75562,0.41979c0.2064,0.16792 0.36557,0.36906 0.47751,0.60344c0.11194,0.23438 0.16792,0.52299 0.16792,0.86581c0,0.3988 -0.07521,0.73988 -0.22564,1.02323c-0.15042,0.28336 -0.35332,0.51249 -0.60869,0.6874c-0.25537,0.17491 -0.54922,0.3026 -0.88155,0.38306c-0.33233,0.08046 -0.68041,0.12069 -1.04422,0.12069c-0.55972,0 -1.11244,-0.08396 -1.65816,-0.25187c-0.54572,-0.16792 -1.03548,-0.40579 -1.46926,-0.71364l0.64018,-1.24887c0.06297,0.06297 0.17666,0.14518 0.34108,0.24663c0.16442,0.10145 0.35857,0.2029 0.58246,0.30435c0.22389,0.10145 0.47226,0.18716 0.74512,0.25712c0.27286,0.06996 0.55272,0.10495 0.83958,0.10495c0.7976,0 1.19639,-0.25537 1.19639,-0.76611c0,-0.16092 -0.04548,-0.29735 -0.13643,-0.40929c-0.09095,-0.11194 -0.22039,-0.20989 -0.3883,-0.29385c-0.16792,-0.08396 -0.37081,-0.16092 -0.60869,-0.23088c-0.23788,-0.06996 -0.50375,-0.14693 -0.7976,-0.23088c-0.35682,-0.09795 -0.66641,-0.20465 -0.92878,-0.32009c-0.26237,-0.11544 -0.48101,-0.25187 -0.65592,-0.40929c-0.17491,-0.15742 -0.3061,-0.33933 -0.39355,-0.54572c-0.08746,-0.2064 -0.13118,-0.45302 -0.13118,-0.73988c0,-0.37781 0.06996,-0.71364 0.20989,-1.00749c0.13993,-0.29385 0.33408,-0.53873 0.58246,-0.73463c0.24837,-0.1959 0.53698,-0.34458 0.86581,-0.44602c0.32883,-0.10145 0.68215,-0.15217 1.05996,-0.15217c0.52473,0 1.00749,0.08221 1.44827,0.24663c0.44078,0.16442 0.82558,0.35857 1.15442,0.58246z" data-paper-data="{&quot;glyphName&quot;:&quot;S&quot;,&quot;glyphIndex&quot;:0,&quot;firstGlyphOfWord&quot;:true,&quot;word&quot;:1}"></path><path d="M139.96387,354.96852c-0.54572,0 -1.04072,-0.1067 -1.485,-0.32009c-0.44428,-0.21339 -0.82558,-0.49675 -1.14392,-0.85007c-0.31834,-0.35332 -0.56496,-0.75737 -0.73988,-1.21214c-0.17491,-0.45477 -0.26237,-0.92003 -0.26237,-1.39579c0,-0.49675 0.0927,-0.97251 0.27811,-1.42728c0.18541,-0.45477 0.44078,-0.85707 0.76611,-1.20689c0.32534,-0.34982 0.71189,-0.62793 1.15966,-0.83433c0.44777,-0.2064 0.93403,-0.30959 1.45876,-0.30959c0.53873,0 1.03023,0.11019 1.4745,0.33058c0.44428,0.22039 0.82383,0.50899 1.13867,0.86581c0.31484,0.35682 0.55972,0.76261 0.73463,1.21738c0.17491,0.45477 0.26237,0.91654 0.26237,1.3853c0,0.49675 -0.09095,0.97076 -0.27286,1.42203c-0.18191,0.45127 -0.43378,0.85007 -0.75562,1.19639c-0.32184,0.34632 -0.70664,0.62268 -1.15442,0.82908c-0.44777,0.2064 -0.93403,0.30959 -1.45876,0.30959zM137.80197,351.19043c0,0.32184 0.04898,0.63318 0.14693,0.93403c0.09795,0.30085 0.23963,0.56671 0.42503,0.7976c0.18541,0.23088 0.41279,0.41629 0.68215,0.55622c0.26936,0.13993 0.57546,0.20989 0.91829,0.20989c0.34982,0 0.65942,-0.07171 0.92878,-0.21514c0.26936,-0.14343 0.49675,-0.33408 0.68215,-0.57196c0.18541,-0.23788 0.32534,-0.50549 0.41979,-0.80284c0.09445,-0.29735 0.14168,-0.59995 0.14168,-0.90779c0,-0.32184 -0.05072,-0.63318 -0.15217,-0.93403c-0.10145,-0.30085 -0.24488,-0.56671 -0.43028,-0.7976c-0.18541,-0.23088 -0.41279,-0.41454 -0.68215,-0.55097c-0.26936,-0.13643 -0.57196,-0.20465 -0.90779,-0.20465c-0.34982,0 -0.66117,0.07171 -0.93403,0.21514c-0.27286,0.14343 -0.50025,0.33233 -0.68215,0.56671c-0.18191,0.23438 -0.32009,0.50025 -0.41454,0.7976c-0.09445,0.29735 -0.14168,0.59995 -0.14168,0.90779z" data-paper-data="{&quot;glyphName&quot;:&quot;O&quot;,&quot;glyphIndex&quot;:1,&quot;word&quot;:1}"></path><path d="M150.02255,354.91604v-7.45123h1.44827v7.45123z" data-paper-data="{&quot;glyphName&quot;:&quot;I&quot;,&quot;glyphIndex&quot;:2,&quot;word&quot;:1}"></path><path d="M159.78971,350.14096v4.77508h-1.44827v-7.45123h1.12293l3.88304,4.89053v-4.88003h1.44827v7.44073h-1.17541z" data-paper-data="{&quot;glyphName&quot;:&quot;N&quot;,&quot;glyphIndex&quot;:3,&quot;lastGlyphOfWord&quot;:true,&quot;word&quot;:1}"></path><path d="M179.29093,354.91604v-7.45123h2.70763c0.60869,0 1.14217,0.09795 1.60044,0.29385c0.45827,0.1959 0.84132,0.46177 1.14917,0.7976c0.30784,0.33583 0.53873,0.72938 0.69265,1.18065c0.15392,0.45127 0.23088,0.93228 0.23088,1.44302c0,0.56671 -0.08571,1.0792 -0.25712,1.53747c-0.17141,0.45827 -0.41804,0.85007 -0.73988,1.17541c-0.32184,0.32534 -0.70839,0.57721 -1.15966,0.75562c-0.45127,0.17841 -0.95677,0.26761 -1.51648,0.26761zM184.21294,351.17993c0,-0.35682 -0.04898,-0.68565 -0.14693,-0.9865c-0.09795,-0.30085 -0.24138,-0.55972 -0.43028,-0.77661c-0.1889,-0.21689 -0.42154,-0.38481 -0.6979,-0.50375c-0.27636,-0.11894 -0.58945,-0.17841 -0.93927,-0.17841h-1.25936v4.91151h1.25936c0.35682,0 0.67341,-0.06297 0.94977,-0.1889c0.27636,-0.12594 0.50724,-0.2991 0.69265,-0.51949c0.18541,-0.22039 0.32708,-0.48101 0.42503,-0.78185c0.09795,-0.30085 0.14693,-0.62618 0.14693,-0.97601z" data-paper-data="{&quot;glyphName&quot;:&quot;D&quot;,&quot;glyphIndex&quot;:4,&quot;firstGlyphOfWord&quot;:true,&quot;word&quot;:2}"></path><path d="M196.07417,353.68816c0.34283,0 0.63143,-0.06996 0.86581,-0.20989c0.23438,-0.13993 0.42329,-0.32184 0.56671,-0.54572c0.14343,-0.22389 0.24488,-0.48101 0.30435,-0.77136c0.05947,-0.29035 0.0892,-0.58945 0.0892,-0.8973v-3.79908h1.43777v3.79908c0,0.51074 -0.06122,0.99 -0.18366,1.43777c-0.12244,0.44777 -0.31484,0.83958 -0.57721,1.17541c-0.26237,0.33583 -0.59995,0.6017 -1.01274,0.7976c-0.41279,0.1959 -0.90604,0.29385 -1.47975,0.29385c-0.5947,0 -1.10019,-0.1032 -1.51648,-0.30959c-0.41629,-0.2064 -0.75387,-0.47926 -1.01274,-0.81859c-0.25887,-0.33933 -0.44602,-0.73288 -0.56147,-1.18065c-0.11544,-0.44777 -0.17316,-0.91304 -0.17316,-1.39579v-3.79908h1.44827v3.79908c0,0.31484 0.02973,0.61744 0.0892,0.90779c0.05947,0.29035 0.16092,0.54747 0.30435,0.77136c0.14343,0.22389 0.33058,0.40405 0.56147,0.54048c0.23088,0.13643 0.51424,0.20465 0.85007,0.20465z" data-paper-data="{&quot;glyphName&quot;:&quot;U&quot;,&quot;glyphIndex&quot;:5,&quot;lastGlyphOfWord&quot;:true,&quot;word&quot;:2}"></path><path d="M213.13801,351.13795c0,-0.45477 0.08221,-0.90429 0.24663,-1.34857c0.16442,-0.44428 0.40405,-0.84132 0.71889,-1.19115c0.31484,-0.34982 0.69965,-0.63318 1.15442,-0.85007c0.45477,-0.21689 0.97251,-0.32534 1.55321,-0.32534c0.68565,0 1.2786,0.15042 1.77885,0.45127c0.50025,0.30085 0.87281,0.69265 1.11768,1.17541l-1.11244,0.76611c-0.09795,-0.20989 -0.21689,-0.38655 -0.35682,-0.52998c-0.13993,-0.14343 -0.29035,-0.25712 -0.45127,-0.34108c-0.16092,-0.08396 -0.32883,-0.14518 -0.50375,-0.18366c-0.17491,-0.03848 -0.34632,-0.05772 -0.51424,-0.05772c-0.36382,0 -0.68041,0.07346 -0.94977,0.22039c-0.26936,0.14693 -0.49325,0.33758 -0.67166,0.57196c-0.17841,0.23438 -0.31309,0.50025 -0.40405,0.7976c-0.09095,0.29735 -0.13643,0.59295 -0.13643,0.8868c0,0.32883 0.05247,0.64542 0.15742,0.94977c0.10495,0.30435 0.25362,0.57196 0.44602,0.80284c0.1924,0.23088 0.42329,0.41629 0.69265,0.55622c0.26936,0.13993 0.56496,0.20989 0.8868,0.20989c0.16792,0 0.34283,-0.02099 0.52473,-0.06297c0.18191,-0.04198 0.35507,-0.10845 0.51949,-0.1994c0.16442,-0.09095 0.31659,-0.20814 0.45652,-0.35157c0.13993,-0.14343 0.25187,-0.31659 0.33583,-0.51949l1.1859,0.68215c-0.11894,0.27986 -0.2886,0.52648 -0.50899,0.73988c-0.22039,0.21339 -0.46876,0.39355 -0.74512,0.54048c-0.27636,0.14693 -0.57196,0.25887 -0.8868,0.33583c-0.31484,0.07696 -0.62268,0.11544 -0.92353,0.11544c-0.53173,0 -1.01798,-0.11194 -1.45876,-0.33583c-0.44078,-0.22389 -0.82033,-0.51599 -1.13867,-0.87631c-0.31834,-0.36032 -0.56671,-0.76961 -0.74512,-1.22788c-0.17841,-0.45827 -0.26761,-0.92528 -0.26761,-1.40104z" data-paper-data="{&quot;glyphName&quot;:&quot;C&quot;,&quot;glyphIndex&quot;:6,&quot;firstGlyphOfWord&quot;:true,&quot;word&quot;:3}"></path><path d="M229.99434,354.96852c-0.54572,0 -1.04072,-0.1067 -1.485,-0.32009c-0.44428,-0.21339 -0.82558,-0.49675 -1.14392,-0.85007c-0.31834,-0.35332 -0.56496,-0.75737 -0.73988,-1.21214c-0.17491,-0.45477 -0.26237,-0.92003 -0.26237,-1.39579c0,-0.49675 0.0927,-0.97251 0.27811,-1.42728c0.18541,-0.45477 0.44078,-0.85707 0.76611,-1.20689c0.32534,-0.34982 0.71189,-0.62793 1.15966,-0.83433c0.44777,-0.2064 0.93403,-0.30959 1.45876,-0.30959c0.53873,0 1.03023,0.11019 1.4745,0.33058c0.44428,0.22039 0.82383,0.50899 1.13867,0.86581c0.31484,0.35682 0.55972,0.76261 0.73463,1.21738c0.17491,0.45477 0.26237,0.91654 0.26237,1.3853c0,0.49675 -0.09095,0.97076 -0.27286,1.42203c-0.18191,0.45127 -0.43378,0.85007 -0.75562,1.19639c-0.32184,0.34632 -0.70664,0.62268 -1.15442,0.82908c-0.44777,0.2064 -0.93403,0.30959 -1.45876,0.30959zM227.83243,351.19043c0,0.32184 0.04898,0.63318 0.14693,0.93403c0.09795,0.30085 0.23963,0.56671 0.42503,0.7976c0.18541,0.23088 0.41279,0.41629 0.68215,0.55622c0.26936,0.13993 0.57546,0.20989 0.91829,0.20989c0.34982,0 0.65942,-0.07171 0.92878,-0.21514c0.26936,-0.14343 0.49675,-0.33408 0.68215,-0.57196c0.18541,-0.23788 0.32534,-0.50549 0.41979,-0.80284c0.09445,-0.29735 0.14168,-0.59995 0.14168,-0.90779c0,-0.32184 -0.05072,-0.63318 -0.15217,-0.93403c-0.10145,-0.30085 -0.24488,-0.56671 -0.43028,-0.7976c-0.18541,-0.23088 -0.41279,-0.41454 -0.68215,-0.55097c-0.26936,-0.13643 -0.57196,-0.20465 -0.90779,-0.20465c-0.34982,0 -0.66117,0.07171 -0.93403,0.21514c-0.27286,0.14343 -0.50025,0.33233 -0.68215,0.56671c-0.18191,0.23438 -0.32009,0.50025 -0.41454,0.7976c-0.09445,0.29735 -0.14168,0.59995 -0.14168,0.90779z" data-paper-data="{&quot;glyphName&quot;:&quot;O&quot;,&quot;glyphIndex&quot;:7,&quot;word&quot;:3}"></path><path d="M240.98442,354.91604v-7.45123h3.29533c0.34283,0 0.65942,0.07171 0.94977,0.21514c0.29035,0.14343 0.54048,0.33233 0.75037,0.56671c0.20989,0.23438 0.37431,0.50025 0.49325,0.7976c0.11894,0.29735 0.17841,0.59645 0.17841,0.8973c0,0.48276 -0.12069,0.92178 -0.36207,1.31708c-0.24138,0.3953 -0.56846,0.68041 -0.98125,0.85532l1.70014,2.80208h-1.62668l-1.52173,-2.49774h-1.42728v2.49774zM242.43268,351.14845h1.81558c0.13293,0 0.25712,-0.03148 0.37256,-0.09445c0.11544,-0.06297 0.21514,-0.14867 0.2991,-0.25712c0.08396,-0.10845 0.15042,-0.23613 0.1994,-0.38306c0.04898,-0.14693 0.07346,-0.30435 0.07346,-0.47226c0,-0.17491 -0.02799,-0.33583 -0.08396,-0.48276c-0.05597,-0.14693 -0.13118,-0.27461 -0.22564,-0.38306c-0.09445,-0.10845 -0.2029,-0.1924 -0.32534,-0.25187c-0.12244,-0.05947 -0.24663,-0.0892 -0.37256,-0.0892h-1.75261z" data-paper-data="{&quot;glyphName&quot;:&quot;R&quot;,&quot;glyphIndex&quot;:8,&quot;word&quot;:3}"></path><path d="M253.78067,354.91604v-7.45123h3.1589c0.34283,0 0.65942,0.07171 0.94977,0.21514c0.29035,0.14343 0.54048,0.33233 0.75037,0.56671c0.20989,0.23438 0.37431,0.50025 0.49325,0.7976c0.11894,0.29735 0.17841,0.59645 0.17841,0.8973c0,0.31484 -0.05597,0.62094 -0.16792,0.91829c-0.11194,0.29735 -0.26936,0.56147 -0.47226,0.79235c-0.2029,0.23088 -0.44777,0.41629 -0.73463,0.55622c-0.28685,0.13993 -0.6017,0.20989 -0.94452,0.20989h-1.76311v2.49774zM255.22893,351.14845h1.67915c0.26587,0 0.488,-0.10845 0.66641,-0.32534c0.17841,-0.21689 0.26761,-0.51074 0.26761,-0.88155c0,-0.1889 -0.02799,-0.35857 -0.08396,-0.50899c-0.05597,-0.15042 -0.12943,-0.27811 -0.22039,-0.38306c-0.09095,-0.10495 -0.19765,-0.18366 -0.32009,-0.23613c-0.12244,-0.05247 -0.24663,-0.07871 -0.37256,-0.07871h-1.61618z" data-paper-data="{&quot;glyphName&quot;:&quot;P&quot;,&quot;glyphIndex&quot;:9,&quot;word&quot;:3}"></path><path d="M270.34682,349.41683c-0.04898,-0.04898 -0.13818,-0.11544 -0.26761,-0.1994c-0.12943,-0.08396 -0.28685,-0.16617 -0.47226,-0.24663c-0.18541,-0.08046 -0.38655,-0.14867 -0.60344,-0.20465c-0.21689,-0.05597 -0.43728,-0.08396 -0.66117,-0.08396c-0.3988,0 -0.69615,0.07346 -0.89205,0.22039c-0.1959,0.14693 -0.29385,0.35332 -0.29385,0.61919c0,0.15392 0.03673,0.28161 0.11019,0.38306c0.07346,0.10145 0.18016,0.19065 0.32009,0.26761c0.13993,0.07696 0.31659,0.14693 0.52998,0.20989c0.21339,0.06297 0.46002,0.12943 0.73988,0.1994c0.36382,0.09795 0.6944,0.2029 0.99175,0.31484c0.29735,0.11194 0.54922,0.25187 0.75562,0.41979c0.2064,0.16792 0.36557,0.36906 0.47751,0.60344c0.11194,0.23438 0.16792,0.52299 0.16792,0.86581c0,0.3988 -0.07521,0.73988 -0.22564,1.02323c-0.15042,0.28336 -0.35332,0.51249 -0.60869,0.6874c-0.25537,0.17491 -0.54922,0.3026 -0.88155,0.38306c-0.33233,0.08046 -0.68041,0.12069 -1.04422,0.12069c-0.55972,0 -1.11244,-0.08396 -1.65816,-0.25187c-0.54572,-0.16792 -1.03548,-0.40579 -1.46926,-0.71364l0.64018,-1.24887c0.06297,0.06297 0.17666,0.14518 0.34108,0.24663c0.16442,0.10145 0.35857,0.2029 0.58246,0.30435c0.22389,0.10145 0.47226,0.18716 0.74512,0.25712c0.27286,0.06996 0.55272,0.10495 0.83958,0.10495c0.7976,0 1.19639,-0.25537 1.19639,-0.76611c0,-0.16092 -0.04548,-0.29735 -0.13643,-0.40929c-0.09095,-0.11194 -0.22039,-0.20989 -0.3883,-0.29385c-0.16792,-0.08396 -0.37081,-0.16092 -0.60869,-0.23088c-0.23788,-0.06996 -0.50375,-0.14693 -0.7976,-0.23088c-0.35682,-0.09795 -0.66641,-0.20465 -0.92878,-0.32009c-0.26237,-0.11544 -0.48101,-0.25187 -0.65592,-0.40929c-0.17491,-0.15742 -0.3061,-0.33933 -0.39355,-0.54572c-0.08746,-0.2064 -0.13118,-0.45302 -0.13118,-0.73988c0,-0.37781 0.06996,-0.71364 0.20989,-1.00749c0.13993,-0.29385 0.33408,-0.53873 0.58246,-0.73463c0.24837,-0.1959 0.53698,-0.34458 0.86581,-0.44602c0.32883,-0.10145 0.68215,-0.15217 1.05996,-0.15217c0.52473,0 1.00749,0.08221 1.44827,0.24663c0.44078,0.16442 0.82558,0.35857 1.15442,0.58246z" data-paper-data="{&quot;glyphName&quot;:&quot;S&quot;,&quot;glyphIndex&quot;:10,&quot;lastGlyphOfWord&quot;:true,&quot;word&quot;:3}"></path><path d="M289.90772,353.64619v1.26986h-5.17388v-7.45123h5.07943v1.26986h-3.63116v1.79459h3.13791v1.17541h-3.13791v1.94152z" data-paper-data="{&quot;glyphName&quot;:&quot;E&quot;,&quot;glyphIndex&quot;:11,&quot;firstGlyphOfWord&quot;:true,&quot;word&quot;:4}"></path><path d="M302.21108,348.73467h-2.38229v6.18137h-1.43777v-6.18137h-2.38229v-1.26986h6.20236z" data-paper-data="{&quot;glyphName&quot;:&quot;T&quot;,&quot;glyphIndex&quot;:12,&quot;lastGlyphOfWord&quot;:true,&quot;word&quot;:4}"></path><path d="M315.35556,354.91604v-7.45123h2.70763c0.60869,0 1.14217,0.09795 1.60044,0.29385c0.45827,0.1959 0.84132,0.46177 1.14917,0.7976c0.30784,0.33583 0.53873,0.72938 0.69265,1.18065c0.15392,0.45127 0.23088,0.93228 0.23088,1.44302c0,0.56671 -0.08571,1.0792 -0.25712,1.53747c-0.17141,0.45827 -0.41804,0.85007 -0.73988,1.17541c-0.32184,0.32534 -0.70839,0.57721 -1.15966,0.75562c-0.45127,0.17841 -0.95677,0.26761 -1.51648,0.26761zM320.27757,351.17993c0,-0.35682 -0.04898,-0.68565 -0.14693,-0.9865c-0.09795,-0.30085 -0.24138,-0.55972 -0.43028,-0.77661c-0.1889,-0.21689 -0.42154,-0.38481 -0.6979,-0.50375c-0.27636,-0.11894 -0.58945,-0.17841 -0.93927,-0.17841h-1.25936v4.91151h1.25936c0.35682,0 0.67341,-0.06297 0.94977,-0.1889c0.27636,-0.12594 0.50724,-0.2991 0.69265,-0.51949c0.18541,-0.22039 0.32708,-0.48101 0.42503,-0.78185c0.09795,-0.30085 0.14693,-0.62618 0.14693,-0.97601z" data-paper-data="{&quot;glyphName&quot;:&quot;D&quot;,&quot;glyphIndex&quot;:13,&quot;firstGlyphOfWord&quot;:true,&quot;word&quot;:5}"></path><path d="M333.93356,353.64619v1.26986h-5.17388v-7.45123h5.07943v1.26986h-3.63116v1.79459h3.13791v1.17541h-3.13791v1.94152z" data-paper-data="{&quot;glyphName&quot;:&quot;E&quot;,&quot;glyphIndex&quot;:14,&quot;lastGlyphOfWord&quot;:true,&quot;word&quot;:5}"></path><path d="M347.34679,354.91604v-7.45123h1.44827v6.18137h3.79908v1.26986z" data-paper-data="{&quot;glyphName&quot;:&quot;L&quot;,&quot;glyphIndex&quot;:15,&quot;firstGlyphOfWord&quot;:true,&quot;word&quot;:6}"></path><path d="M356.80507,349.67919v-2.35081h1.19639v2.35081z" data-paper-data="{&quot;glyphName&quot;:&quot;'&quot;,&quot;glyphIndex&quot;:16,&quot;word&quot;:6}"></path><path d="M369.52734,353.64619v1.26986h-5.17388v-7.45123h5.07943v1.26986h-3.63116v1.79459h3.13791v1.17541h-3.13791v1.94152z" data-paper-data="{&quot;glyphName&quot;:&quot;E&quot;,&quot;glyphIndex&quot;:17,&quot;word&quot;:6}"></path><path d="M380.44585,349.41683c-0.04898,-0.04898 -0.13818,-0.11544 -0.26761,-0.1994c-0.12943,-0.08396 -0.28685,-0.16617 -0.47226,-0.24663c-0.18541,-0.08046 -0.38655,-0.14867 -0.60344,-0.20465c-0.21689,-0.05597 -0.43728,-0.08396 -0.66117,-0.08396c-0.3988,0 -0.69615,0.07346 -0.89205,0.22039c-0.1959,0.14693 -0.29385,0.35332 -0.29385,0.61919c0,0.15392 0.03673,0.28161 0.11019,0.38306c0.07346,0.10145 0.18016,0.19065 0.32009,0.26761c0.13993,0.07696 0.31659,0.14693 0.52998,0.20989c0.21339,0.06297 0.46002,0.12943 0.73988,0.1994c0.36382,0.09795 0.6944,0.2029 0.99175,0.31484c0.29735,0.11194 0.54922,0.25187 0.75562,0.41979c0.2064,0.16792 0.36557,0.36906 0.47751,0.60344c0.11194,0.23438 0.16792,0.52299 0.16792,0.86581c0,0.3988 -0.07521,0.73988 -0.22564,1.02323c-0.15042,0.28336 -0.35332,0.51249 -0.60869,0.6874c-0.25537,0.17491 -0.54922,0.3026 -0.88155,0.38306c-0.33233,0.08046 -0.68041,0.12069 -1.04422,0.12069c-0.55972,0 -1.11244,-0.08396 -1.65816,-0.25187c-0.54572,-0.16792 -1.03548,-0.40579 -1.46926,-0.71364l0.64018,-1.24887c0.06297,0.06297 0.17666,0.14518 0.34108,0.24663c0.16442,0.10145 0.35857,0.2029 0.58246,0.30435c0.22389,0.10145 0.47226,0.18716 0.74512,0.25712c0.27286,0.06996 0.55272,0.10495 0.83958,0.10495c0.7976,0 1.19639,-0.25537 1.19639,-0.76611c0,-0.16092 -0.04548,-0.29735 -0.13643,-0.40929c-0.09095,-0.11194 -0.22039,-0.20989 -0.3883,-0.29385c-0.16792,-0.08396 -0.37081,-0.16092 -0.60869,-0.23088c-0.23788,-0.06996 -0.50375,-0.14693 -0.7976,-0.23088c-0.35682,-0.09795 -0.66641,-0.20465 -0.92878,-0.32009c-0.26237,-0.11544 -0.48101,-0.25187 -0.65592,-0.40929c-0.17491,-0.15742 -0.3061,-0.33933 -0.39355,-0.54572c-0.08746,-0.2064 -0.13118,-0.45302 -0.13118,-0.73988c0,-0.37781 0.06996,-0.71364 0.20989,-1.00749c0.13993,-0.29385 0.33408,-0.53873 0.58246,-0.73463c0.24837,-0.1959 0.53698,-0.34458 0.86581,-0.44602c0.32883,-0.10145 0.68215,-0.15217 1.05996,-0.15217c0.52473,0 1.00749,0.08221 1.44827,0.24663c0.44078,0.16442 0.82558,0.35857 1.15442,0.58246z" data-paper-data="{&quot;glyphName&quot;:&quot;S&quot;,&quot;glyphIndex&quot;:18,&quot;word&quot;:6}"></path><path d="M388.2849,354.91604v-7.45123h3.1589c0.34283,0 0.65942,0.07171 0.94977,0.21514c0.29035,0.14343 0.54048,0.33233 0.75037,0.56671c0.20989,0.23438 0.37431,0.50025 0.49325,0.7976c0.11894,0.29735 0.17841,0.59645 0.17841,0.8973c0,0.31484 -0.05597,0.62094 -0.16792,0.91829c-0.11194,0.29735 -0.26936,0.56147 -0.47226,0.79235c-0.2029,0.23088 -0.44777,0.41629 -0.73463,0.55622c-0.28685,0.13993 -0.6017,0.20989 -0.94452,0.20989h-1.76311v2.49774zM389.73317,351.14845h1.67915c0.26587,0 0.488,-0.10845 0.66641,-0.32534c0.17841,-0.21689 0.26761,-0.51074 0.26761,-0.88155c0,-0.1889 -0.02799,-0.35857 -0.08396,-0.50899c-0.05597,-0.15042 -0.12943,-0.27811 -0.22039,-0.38306c-0.09095,-0.10495 -0.19765,-0.18366 -0.32009,-0.23613c-0.12244,-0.05247 -0.24663,-0.07871 -0.37256,-0.07871h-1.61618z" data-paper-data="{&quot;glyphName&quot;:&quot;P&quot;,&quot;glyphIndex&quot;:19,&quot;word&quot;:6}"></path><path d="M400.66174,354.91604v-7.45123h3.29533c0.34283,0 0.65942,0.07171 0.94977,0.21514c0.29035,0.14343 0.54048,0.33233 0.75037,0.56671c0.20989,0.23438 0.37431,0.50025 0.49325,0.7976c0.11894,0.29735 0.17841,0.59645 0.17841,0.8973c0,0.48276 -0.12069,0.92178 -0.36207,1.31708c-0.24138,0.3953 -0.56846,0.68041 -0.98125,0.85532l1.70014,2.80208h-1.62668l-1.52173,-2.49774h-1.42728v2.49774zM402.11,351.14845h1.81558c0.13293,0 0.25712,-0.03148 0.37256,-0.09445c0.11544,-0.06297 0.21514,-0.14867 0.2991,-0.25712c0.08396,-0.10845 0.15042,-0.23613 0.1994,-0.38306c0.04898,-0.14693 0.07346,-0.30435 0.07346,-0.47226c0,-0.17491 -0.02799,-0.33583 -0.08396,-0.48276c-0.05597,-0.14693 -0.13118,-0.27461 -0.22564,-0.38306c-0.09445,-0.10845 -0.2029,-0.1924 -0.32534,-0.25187c-0.12244,-0.05947 -0.24663,-0.0892 -0.37256,-0.0892h-1.75261z" data-paper-data="{&quot;glyphName&quot;:&quot;R&quot;,&quot;glyphIndex&quot;:20,&quot;word&quot;:6}"></path><path d="M412.62699,354.91604v-7.45123h1.44827v7.45123z" data-paper-data="{&quot;glyphName&quot;:&quot;I&quot;,&quot;glyphIndex&quot;:21,&quot;word&quot;:6}"></path><path d="M426.21094,348.73467h-2.38229v6.18137h-1.43777v-6.18137h-2.38229v-1.26986h6.20236z" data-paper-data="{&quot;glyphName&quot;:&quot;T&quot;,&quot;glyphIndex&quot;:22,&quot;lastGlyphOfWord&quot;:true,&quot;word&quot;:6}"></path></g><g data-paper-data="{&quot;fillRule&quot;:&quot;nonzero&quot;,&quot;fillRuleOriginal&quot;:&quot;nonzero&quot;,&quot;isIcon&quot;:true,&quot;iconStyle&quot;:&quot;standalone&quot;,&quot;selectedEffects&quot;:{&quot;container&quot;:&quot;enclosed_circle_outline2&quot;,&quot;transformation&quot;:&quot;&quot;,&quot;pattern&quot;:&quot;&quot;},&quot;bounds&quot;:{&quot;x&quot;:204.26806873136687,&quot;y&quot;:115,&quot;width&quot;:141.4638625372663,&quot;height&quot;:149.80681164468672},&quot;widthRatioIconToContainer&quot;:0.5950865887767384,&quot;heightRatioIconToContainer&quot;:0.9999999999999999,&quot;relativeBoundsIconToContainer&quot;:{&quot;top&quot;:-6.047172219234895e-17,&quot;left&quot;:0.0995835129429796},&quot;iconType&quot;:&quot;initial&quot;,&quot;initialText&quot;:&quot;B&quot;,&quot;rawInitialId&quot;:1030,&quot;blockLetter&quot;:&quot;O&quot;,&quot;suitableAsStandaloneIcon&quot;:true}"><path d="M330.16791,198.85026c1.28562,0.38915 1.3098,0.62821 0.27431,2.70993c-3.17462,6.38185 -11.79098,11.76882 -20.31934,12.70459c-3.18973,0.35021 -3.86126,0.53454 -3.86126,1.06168c0,1.31886 -3.23912,10.17361 -5.14625,14.06845c-7.21789,14.73998 -18.60193,25.12947 -30.24316,27.60069c-3.05544,0.6487 -9.07097,0.44087 -11.38236,-0.39317c-0.87298,-0.31493 -1.66538,-0.52748 -1.72917,-0.46401c-0.06445,0.06445 0.09469,1.91385 0.35256,4.0963c0.25787,2.18245 0.38512,4.1151 0.28205,4.28097c-0.29345,0.47175 -2.43092,0.3465 -3.50536,-0.20515c-0.83606,-0.42911 -1.12079,-0.98681 -2.01459,-3.94152c-0.56879,-1.88026 -1.40853,-4.58416 -1.85139,-5.95978c-1.28497,-3.99255 -2.57899,-12.28891 -3.58763,-22.99974c-0.58726,-6.2351 -0.58726,-33.91202 -0.00034,-41.2988c2.07569,-26.12234 5.15596,-44.73097 10.08765,-60.94092c3.07458,-10.10645 4.58047,-13.37947 6.43187,-13.98116c1.06605,-0.3465 2.35034,-0.21489 3.79413,0.38915c0.88137,0.36901 0.72423,1.67244 -0.76756,6.37312c-1.31081,4.12988 -4.16411,17.04768 -3.92338,17.76184c0.06983,0.20684 0.31763,0 0.56374,-0.47006c1.25373,-2.39566 6.69443,-9.0656 10.57216,-12.96044c4.81382,-4.83498 8.89939,-8.05663 12.25701,-9.66527c1.98604,-0.95155 2.48465,-1.04556 5.54009,-1.04556c3.08902,0 3.50268,0.08024 5.17074,1.00427c3.29618,1.82555 4.73425,4.80444 4.73425,9.8073c0,5.21707 -1.44075,10.37506 -4.90515,17.56038c-4.65567,9.65655 -11.39613,19.67569 -20.84885,30.9909l-4.09529,4.90214l2.41749,-0.82565c4.29775,-1.46763 7.36897,-1.92426 11.61738,-1.72817c8.99845,0.41566 14.81888,4.00731 18.50253,11.41794c2.54004,5.10997 3.1508,8.46121 2.88756,15.848c-0.11247,3.15617 -0.29345,6.34593 -0.40494,7.13497l-0.20147,1.42699l1.1416,-0.19843c7.92399,-1.3783 13.83845,-4.61103 17.45025,-9.53868c2.80563,-3.82768 3.81259,-4.79469 4.71008,-4.52305zM256.01738,188.7009c-0.30386,2.69383 0.11618,2.28318 7.48415,-7.31964c13.47348,-17.56038 25.34704,-36.72438 29.76972,-48.04764c2.67534,-6.84955 2.92347,-12.69553 0.65003,-15.31077c-0.59632,-0.68597 -1.3924,-0.71483 -3.27267,-0.11785c-7.94447,2.52158 -21.33537,16.26804 -28.30881,29.06059c-1.17382,2.15358 -1.49615,3.22331 -2.22476,7.38677c-1.50422,8.59552 -3.12831,21.66508 -3.71287,29.88286c-0.11214,1.57808 -0.28405,3.57452 -0.38478,4.46564zM296.72322,218.68451c0.63057,-1.81312 1.14395,-3.42646 1.14429,-3.593c0,-0.36832 -12.18818,-0.32367 -16.95601,0.06212c-7.82327,0.63291 -14.03321,3.53054 -18.79164,8.76844c-3.44693,3.79413 -6.22268,9.41075 -6.22268,12.59111c0,3.22331 1.36487,14.04124 1.90646,15.10931c0.2995,0.59094 1.14897,1.49315 1.88766,2.00484c3.50806,2.42991 10.44223,0.82732 16.78814,-3.88008c7.88404,-5.84832 15.58542,-17.66583 20.2438,-31.06276zM299.10982,209.75318c0.45396,-2.39667 0.59565,-4.73459 0.57113,-9.40135c-0.03122,-5.77511 -0.09736,-6.42379 -0.94013,-9.23346c-0.50364,-1.67881 -1.3088,-3.76793 -1.81143,-4.70068c-1.33901,-2.48499 -4.0446,-5.0022 -6.28078,-5.84429c-4.06173,-1.52939 -11.24805,-0.5624 -17.29178,2.32717c-5.13718,2.45611 -7.36866,4.06508 -10.55907,7.61342c-3.35092,3.72697 -6.22572,6.48022 -6.76629,6.48022c-0.59362,0 -0.8008,4.59996 -0.78602,17.45967l0.01377,11.91957l0.70981,-1.00729c1.39577,-1.98101 7.17694,-7.42102 9.0609,-8.52636c2.53905,-1.48945 5.47294,-2.65085 8.42764,-3.33614c2.01591,-0.46772 4.29777,-0.56072 13.73269,-0.56072h11.3152l0.60437,-3.18975zM224.98495,140.00378c6.52592,-6.52588 14.02009,-11.57847 22.4825,-15.15778c2.49344,-1.05464 5.02054,-1.95923 7.58127,-2.71374l-0.22939,0.67713l-0.47613,1.46077l-0.40239,1.27107c-1.79542,0.58847 -3.57327,1.25497 -5.33356,1.9995c-8.112,3.43111 -15.29646,8.27512 -21.55337,14.53202c-6.25687,6.25687 -11.10086,13.4413 -14.53197,21.55331c-3.55193,8.39772 -5.32789,17.19529 -5.32789,26.39271c0,9.1975 1.77597,17.99509 5.32789,26.39277c3.43111,8.11209 8.2751,15.29644 14.53197,21.55306c5.46676,5.46691 11.64164,9.85509 18.52462,13.16456l0.09086,0.45193l0.02162,0.10136l0.32911,1.46173l0.03509,0.14471l0.3773,1.44962l0.00193,0.00687c-8.04047,-3.54844 -15.19029,-8.45228 -21.44946,-14.71152c-6.52592,-6.52605 -11.57854,-14.02022 -15.15784,-22.4825c-3.70603,-8.76232 -5.55905,-17.93985 -5.55905,-27.53258c0,-9.59291 1.85301,-18.77041 5.55905,-27.53251c3.5793,-8.46241 8.63191,-15.95658 15.15784,-22.4825zM325.0146,140.00378c6.52605,6.52588 11.57869,14.02005 15.1579,22.4825c3.70629,8.76202 5.55943,17.93952 5.55943,27.53251c0,9.59274 -1.85314,18.77026 -5.55943,27.53258c-3.57921,8.46228 -8.63185,15.95645 -15.1579,22.4825c-6.52563,6.52563 -14.01969,11.57826 -22.48218,15.1579c-8.76202,3.70586 -17.93952,5.55879 -27.53251,5.55879c-0.23317,0 -0.46609,-0.00109 -0.69876,-0.00328l0.74332,-0.22111l0.21413,-0.06949l1.41271,-0.49787l0.20049,-0.07586l1.38734,-0.5648l0.18716,-0.0816l1.36031,-0.62728l0.17441,-0.08478l1.33194,-0.68528l0.1625,-0.08797l0.48092,-0.27299c6.70063,-0.6747 13.17938,-2.33527 19.43625,-4.98172c8.11188,-3.4309 15.29634,-8.27486 21.55337,-14.5319c6.25704,-6.25661 11.10101,-13.44097 14.5319,-21.55306c3.55202,-8.39768 5.32802,-17.19528 5.32802,-26.39277c0,-9.19725 -1.776,-17.99482 -5.32802,-26.39271c-3.4309,-8.11192 -8.27486,-15.29636 -14.5319,-21.55331c-4.99125,-4.99115 -10.57265,-9.08323 -16.74418,-12.27623l0.10281,-1.06919l0.0167,-0.24243l0.0626,-1.4966l0.00376,-0.1544l0.00166,-0.22147c6.90046,3.41097 13.10888,7.87474 18.62526,13.39134z" data-paper-data="{&quot;isPathIcon&quot;:true}"></path></g></g></g></svg>