<?xml version="1.0" encoding="UTF-8" standalone="no"?>
<!-- Created with Inkscape (http://www.inkscape.org/) -->

<svg
   width="80.015778mm"
   height="2.0297699mm"
   viewBox="0 0 80.015778 2.0297699"
   version="1.1"
   id="svg1132"
   xmlns:inkscape="http://www.inkscape.org/namespaces/inkscape"
   xmlns:sodipodi="http://sodipodi.sourceforge.net/DTD/sodipodi-0.dtd"
   xmlns="http://www.w3.org/2000/svg"
   xmlns:svg="http://www.w3.org/2000/svg">
  <sodipodi:namedview
     id="namedview1134"
     pagecolor="#ffffff"
     bordercolor="#000000"
     borderopacity="0.25"
     inkscape:showpageshadow="2"
     inkscape:pageopacity="0.0"
     inkscape:pagecheckerboard="0"
     inkscape:deskcolor="#d1d1d1"
     inkscape:document-units="mm"
     showgrid="false" />
  <defs
     id="defs1129" />
  <g
     inkscape:label="Calque 1"
     inkscape:groupmode="layer"
     id="layer1"
     transform="translate(-126.7663,-172.50125)">
    <g
       id="g142"
       inkscape:export-filename="slogan.svg"
       inkscape:export-xdpi="96"
       inkscape:export-ydpi="96"
       transform="matrix(0.26458333,0,0,0.26458333,94.013774,80.603945)"
       style="mix-blend-mode:normal">
      <path
         d="m 128.77404,349.41683 c -0.049,-0.049 -0.13818,-0.11544 -0.26761,-0.1994 -0.12943,-0.084 -0.28685,-0.16617 -0.47226,-0.24663 -0.18541,-0.0805 -0.38655,-0.14867 -0.60344,-0.20465 -0.21689,-0.056 -0.43728,-0.084 -0.66117,-0.084 -0.3988,0 -0.69615,0.0735 -0.89205,0.22039 -0.1959,0.14693 -0.29385,0.35332 -0.29385,0.61919 0,0.15392 0.0367,0.28161 0.11019,0.38306 0.0735,0.10145 0.18016,0.19065 0.32009,0.26761 0.13993,0.077 0.31659,0.14693 0.52998,0.20989 0.21339,0.063 0.46002,0.12943 0.73988,0.1994 0.36382,0.098 0.6944,0.2029 0.99175,0.31484 0.29735,0.11194 0.54922,0.25187 0.75562,0.41979 0.2064,0.16792 0.36557,0.36906 0.47751,0.60344 0.11194,0.23438 0.16792,0.52299 0.16792,0.86581 0,0.3988 -0.0752,0.73988 -0.22564,1.02323 -0.15042,0.28336 -0.35332,0.51249 -0.60869,0.6874 -0.25537,0.17491 -0.54922,0.3026 -0.88155,0.38306 -0.33233,0.0805 -0.68041,0.12069 -1.04422,0.12069 -0.55972,0 -1.11244,-0.084 -1.65816,-0.25187 -0.54572,-0.16792 -1.03548,-0.40579 -1.46926,-0.71364 l 0.64018,-1.24887 c 0.063,0.063 0.17666,0.14518 0.34108,0.24663 0.16442,0.10145 0.35857,0.2029 0.58246,0.30435 0.22389,0.10145 0.47226,0.18716 0.74512,0.25712 0.27286,0.07 0.55272,0.10495 0.83958,0.10495 0.7976,0 1.19639,-0.25537 1.19639,-0.76611 0,-0.16092 -0.0455,-0.29735 -0.13643,-0.40929 -0.091,-0.11194 -0.22039,-0.20989 -0.3883,-0.29385 -0.16792,-0.084 -0.37081,-0.16092 -0.60869,-0.23088 -0.23788,-0.07 -0.50375,-0.14693 -0.7976,-0.23088 -0.35682,-0.098 -0.66641,-0.20465 -0.92878,-0.32009 -0.26237,-0.11544 -0.48101,-0.25187 -0.65592,-0.40929 -0.17491,-0.15742 -0.3061,-0.33933 -0.39355,-0.54572 -0.0875,-0.2064 -0.13118,-0.45302 -0.13118,-0.73988 0,-0.37781 0.07,-0.71364 0.20989,-1.00749 0.13993,-0.29385 0.33408,-0.53873 0.58246,-0.73463 0.24837,-0.1959 0.53698,-0.34458 0.86581,-0.44602 0.32883,-0.10145 0.68215,-0.15217 1.05996,-0.15217 0.52473,0 1.00749,0.0822 1.44827,0.24663 0.44078,0.16442 0.82558,0.35857 1.15442,0.58246 z"
         data-paper-data="{&quot;glyphName&quot;:&quot;S&quot;,&quot;glyphIndex&quot;:0,&quot;firstGlyphOfWord&quot;:true,&quot;word&quot;:1}"
         id="path96" />
      <path
         d="m 139.96387,354.96852 c -0.54572,0 -1.04072,-0.1067 -1.485,-0.32009 -0.44428,-0.21339 -0.82558,-0.49675 -1.14392,-0.85007 -0.31834,-0.35332 -0.56496,-0.75737 -0.73988,-1.21214 -0.17491,-0.45477 -0.26237,-0.92003 -0.26237,-1.39579 0,-0.49675 0.0927,-0.97251 0.27811,-1.42728 0.18541,-0.45477 0.44078,-0.85707 0.76611,-1.20689 0.32534,-0.34982 0.71189,-0.62793 1.15966,-0.83433 0.44777,-0.2064 0.93403,-0.30959 1.45876,-0.30959 0.53873,0 1.03023,0.11019 1.4745,0.33058 0.44428,0.22039 0.82383,0.50899 1.13867,0.86581 0.31484,0.35682 0.55972,0.76261 0.73463,1.21738 0.17491,0.45477 0.26237,0.91654 0.26237,1.3853 0,0.49675 -0.091,0.97076 -0.27286,1.42203 -0.18191,0.45127 -0.43378,0.85007 -0.75562,1.19639 -0.32184,0.34632 -0.70664,0.62268 -1.15442,0.82908 -0.44777,0.2064 -0.93403,0.30959 -1.45876,0.30959 z m -2.1619,-3.77809 c 0,0.32184 0.049,0.63318 0.14693,0.93403 0.0979,0.30085 0.23963,0.56671 0.42503,0.7976 0.18541,0.23088 0.41279,0.41629 0.68215,0.55622 0.26936,0.13993 0.57546,0.20989 0.91829,0.20989 0.34982,0 0.65942,-0.0717 0.92878,-0.21514 0.26936,-0.14343 0.49675,-0.33408 0.68215,-0.57196 0.18541,-0.23788 0.32534,-0.50549 0.41979,-0.80284 0.0944,-0.29735 0.14168,-0.59995 0.14168,-0.90779 0,-0.32184 -0.0507,-0.63318 -0.15217,-0.93403 -0.10145,-0.30085 -0.24488,-0.56671 -0.43028,-0.7976 -0.18541,-0.23088 -0.41279,-0.41454 -0.68215,-0.55097 -0.26936,-0.13643 -0.57196,-0.20465 -0.90779,-0.20465 -0.34982,0 -0.66117,0.0717 -0.93403,0.21514 -0.27286,0.14343 -0.50025,0.33233 -0.68215,0.56671 -0.18191,0.23438 -0.32009,0.50025 -0.41454,0.7976 -0.0944,0.29735 -0.14168,0.59995 -0.14168,0.90779 z"
         data-paper-data="{&quot;glyphName&quot;:&quot;O&quot;,&quot;glyphIndex&quot;:1,&quot;word&quot;:1}"
         id="path98" />
      <path
         d="m 150.02255,354.91604 v -7.45123 h 1.44827 v 7.45123 z"
         data-paper-data="{&quot;glyphName&quot;:&quot;I&quot;,&quot;glyphIndex&quot;:2,&quot;word&quot;:1}"
         id="path100" />
      <path
         d="m 159.78971,350.14096 v 4.77508 h -1.44827 v -7.45123 h 1.12293 l 3.88304,4.89053 v -4.88003 h 1.44827 v 7.44073 h -1.17541 z"
         data-paper-data="{&quot;glyphName&quot;:&quot;N&quot;,&quot;glyphIndex&quot;:3,&quot;lastGlyphOfWord&quot;:true,&quot;word&quot;:1}"
         id="path102" />
      <path
         d="m 179.29093,354.91604 v -7.45123 h 2.70763 c 0.60869,0 1.14217,0.098 1.60044,0.29385 0.45827,0.1959 0.84132,0.46177 1.14917,0.7976 0.30784,0.33583 0.53873,0.72938 0.69265,1.18065 0.15392,0.45127 0.23088,0.93228 0.23088,1.44302 0,0.56671 -0.0857,1.0792 -0.25712,1.53747 -0.17141,0.45827 -0.41804,0.85007 -0.73988,1.17541 -0.32184,0.32534 -0.70839,0.57721 -1.15966,0.75562 -0.45127,0.17841 -0.95677,0.26761 -1.51648,0.26761 z m 4.92201,-3.73611 c 0,-0.35682 -0.049,-0.68565 -0.14693,-0.9865 -0.0979,-0.30085 -0.24138,-0.55972 -0.43028,-0.77661 -0.1889,-0.21689 -0.42154,-0.38481 -0.6979,-0.50375 -0.27636,-0.11894 -0.58945,-0.17841 -0.93927,-0.17841 h -1.25936 v 4.91151 h 1.25936 c 0.35682,0 0.67341,-0.063 0.94977,-0.1889 0.27636,-0.12594 0.50724,-0.2991 0.69265,-0.51949 0.18541,-0.22039 0.32708,-0.48101 0.42503,-0.78185 0.0979,-0.30085 0.14693,-0.62618 0.14693,-0.97601 z"
         data-paper-data="{&quot;glyphName&quot;:&quot;D&quot;,&quot;glyphIndex&quot;:4,&quot;firstGlyphOfWord&quot;:true,&quot;word&quot;:2}"
         id="path104" />
      <path
         d="m 196.07417,353.68816 c 0.34283,0 0.63143,-0.07 0.86581,-0.20989 0.23438,-0.13993 0.42329,-0.32184 0.56671,-0.54572 0.14343,-0.22389 0.24488,-0.48101 0.30435,-0.77136 0.0595,-0.29035 0.0892,-0.58945 0.0892,-0.8973 v -3.79908 h 1.43777 v 3.79908 c 0,0.51074 -0.0612,0.99 -0.18366,1.43777 -0.12244,0.44777 -0.31484,0.83958 -0.57721,1.17541 -0.26237,0.33583 -0.59995,0.6017 -1.01274,0.7976 -0.41279,0.1959 -0.90604,0.29385 -1.47975,0.29385 -0.5947,0 -1.10019,-0.1032 -1.51648,-0.30959 -0.41629,-0.2064 -0.75387,-0.47926 -1.01274,-0.81859 -0.25887,-0.33933 -0.44602,-0.73288 -0.56147,-1.18065 -0.11544,-0.44777 -0.17316,-0.91304 -0.17316,-1.39579 v -3.79908 h 1.44827 v 3.79908 c 0,0.31484 0.0297,0.61744 0.0892,0.90779 0.0595,0.29035 0.16092,0.54747 0.30435,0.77136 0.14343,0.22389 0.33058,0.40405 0.56147,0.54048 0.23088,0.13643 0.51424,0.20465 0.85007,0.20465 z"
         data-paper-data="{&quot;glyphName&quot;:&quot;U&quot;,&quot;glyphIndex&quot;:5,&quot;lastGlyphOfWord&quot;:true,&quot;word&quot;:2}"
         id="path106" />
      <path
         d="m 213.13801,351.13795 c 0,-0.45477 0.0822,-0.90429 0.24663,-1.34857 0.16442,-0.44428 0.40405,-0.84132 0.71889,-1.19115 0.31484,-0.34982 0.69965,-0.63318 1.15442,-0.85007 0.45477,-0.21689 0.97251,-0.32534 1.55321,-0.32534 0.68565,0 1.2786,0.15042 1.77885,0.45127 0.50025,0.30085 0.87281,0.69265 1.11768,1.17541 l -1.11244,0.76611 c -0.0979,-0.20989 -0.21689,-0.38655 -0.35682,-0.52998 -0.13993,-0.14343 -0.29035,-0.25712 -0.45127,-0.34108 -0.16092,-0.084 -0.32883,-0.14518 -0.50375,-0.18366 -0.17491,-0.0385 -0.34632,-0.0577 -0.51424,-0.0577 -0.36382,0 -0.68041,0.0735 -0.94977,0.22039 -0.26936,0.14693 -0.49325,0.33758 -0.67166,0.57196 -0.17841,0.23438 -0.31309,0.50025 -0.40405,0.7976 -0.0909,0.29735 -0.13643,0.59295 -0.13643,0.8868 0,0.32883 0.0525,0.64542 0.15742,0.94977 0.10495,0.30435 0.25362,0.57196 0.44602,0.80284 0.1924,0.23088 0.42329,0.41629 0.69265,0.55622 0.26936,0.13993 0.56496,0.20989 0.8868,0.20989 0.16792,0 0.34283,-0.021 0.52473,-0.063 0.18191,-0.042 0.35507,-0.10845 0.51949,-0.1994 0.16442,-0.0909 0.31659,-0.20814 0.45652,-0.35157 0.13993,-0.14343 0.25187,-0.31659 0.33583,-0.51949 l 1.1859,0.68215 c -0.11894,0.27986 -0.2886,0.52648 -0.50899,0.73988 -0.22039,0.21339 -0.46876,0.39355 -0.74512,0.54048 -0.27636,0.14693 -0.57196,0.25887 -0.8868,0.33583 -0.31484,0.077 -0.62268,0.11544 -0.92353,0.11544 -0.53173,0 -1.01798,-0.11194 -1.45876,-0.33583 -0.44078,-0.22389 -0.82033,-0.51599 -1.13867,-0.87631 -0.31834,-0.36032 -0.56671,-0.76961 -0.74512,-1.22788 -0.17841,-0.45827 -0.26761,-0.92528 -0.26761,-1.40104 z"
         data-paper-data="{&quot;glyphName&quot;:&quot;C&quot;,&quot;glyphIndex&quot;:6,&quot;firstGlyphOfWord&quot;:true,&quot;word&quot;:3}"
         id="path108" />
      <path
         d="m 229.99434,354.96852 c -0.54572,0 -1.04072,-0.1067 -1.485,-0.32009 -0.44428,-0.21339 -0.82558,-0.49675 -1.14392,-0.85007 -0.31834,-0.35332 -0.56496,-0.75737 -0.73988,-1.21214 -0.17491,-0.45477 -0.26237,-0.92003 -0.26237,-1.39579 0,-0.49675 0.0927,-0.97251 0.27811,-1.42728 0.18541,-0.45477 0.44078,-0.85707 0.76611,-1.20689 0.32534,-0.34982 0.71189,-0.62793 1.15966,-0.83433 0.44777,-0.2064 0.93403,-0.30959 1.45876,-0.30959 0.53873,0 1.03023,0.11019 1.4745,0.33058 0.44428,0.22039 0.82383,0.50899 1.13867,0.86581 0.31484,0.35682 0.55972,0.76261 0.73463,1.21738 0.17491,0.45477 0.26237,0.91654 0.26237,1.3853 0,0.49675 -0.0909,0.97076 -0.27286,1.42203 -0.18191,0.45127 -0.43378,0.85007 -0.75562,1.19639 -0.32184,0.34632 -0.70664,0.62268 -1.15442,0.82908 -0.44777,0.2064 -0.93403,0.30959 -1.45876,0.30959 z m -2.16191,-3.77809 c 0,0.32184 0.049,0.63318 0.14693,0.93403 0.0979,0.30085 0.23963,0.56671 0.42503,0.7976 0.18541,0.23088 0.41279,0.41629 0.68215,0.55622 0.26936,0.13993 0.57546,0.20989 0.91829,0.20989 0.34982,0 0.65942,-0.0717 0.92878,-0.21514 0.26936,-0.14343 0.49675,-0.33408 0.68215,-0.57196 0.18541,-0.23788 0.32534,-0.50549 0.41979,-0.80284 0.0944,-0.29735 0.14168,-0.59995 0.14168,-0.90779 0,-0.32184 -0.0507,-0.63318 -0.15217,-0.93403 -0.10145,-0.30085 -0.24488,-0.56671 -0.43028,-0.7976 -0.18541,-0.23088 -0.41279,-0.41454 -0.68215,-0.55097 -0.26936,-0.13643 -0.57196,-0.20465 -0.90779,-0.20465 -0.34982,0 -0.66117,0.0717 -0.93403,0.21514 -0.27286,0.14343 -0.50025,0.33233 -0.68215,0.56671 -0.18191,0.23438 -0.32009,0.50025 -0.41454,0.7976 -0.0944,0.29735 -0.14168,0.59995 -0.14168,0.90779 z"
         data-paper-data="{&quot;glyphName&quot;:&quot;O&quot;,&quot;glyphIndex&quot;:7,&quot;word&quot;:3}"
         id="path110" />
      <path
         d="m 240.98442,354.91604 v -7.45123 h 3.29533 c 0.34283,0 0.65942,0.0717 0.94977,0.21514 0.29035,0.14343 0.54048,0.33233 0.75037,0.56671 0.20989,0.23438 0.37431,0.50025 0.49325,0.7976 0.11894,0.29735 0.17841,0.59645 0.17841,0.8973 0,0.48276 -0.12069,0.92178 -0.36207,1.31708 -0.24138,0.3953 -0.56846,0.68041 -0.98125,0.85532 l 1.70014,2.80208 h -1.62668 l -1.52173,-2.49774 h -1.42728 v 2.49774 z m 1.44826,-3.76759 h 1.81558 c 0.13293,0 0.25712,-0.0315 0.37256,-0.0945 0.11544,-0.063 0.21514,-0.14867 0.2991,-0.25712 0.084,-0.10845 0.15042,-0.23613 0.1994,-0.38306 0.049,-0.14693 0.0735,-0.30435 0.0735,-0.47226 0,-0.17491 -0.028,-0.33583 -0.084,-0.48276 -0.056,-0.14693 -0.13118,-0.27461 -0.22564,-0.38306 -0.0945,-0.10845 -0.2029,-0.1924 -0.32534,-0.25187 -0.12244,-0.0595 -0.24663,-0.0892 -0.37256,-0.0892 h -1.75261 z"
         data-paper-data="{&quot;glyphName&quot;:&quot;R&quot;,&quot;glyphIndex&quot;:8,&quot;word&quot;:3}"
         id="path112" />
      <path
         d="m 253.78067,354.91604 v -7.45123 h 3.1589 c 0.34283,0 0.65942,0.0717 0.94977,0.21514 0.29035,0.14343 0.54048,0.33233 0.75037,0.56671 0.20989,0.23438 0.37431,0.50025 0.49325,0.7976 0.11894,0.29735 0.17841,0.59645 0.17841,0.8973 0,0.31484 -0.056,0.62094 -0.16792,0.91829 -0.11194,0.29735 -0.26936,0.56147 -0.47226,0.79235 -0.2029,0.23088 -0.44777,0.41629 -0.73463,0.55622 -0.28685,0.13993 -0.6017,0.20989 -0.94452,0.20989 h -1.76311 v 2.49774 z m 1.44826,-3.76759 h 1.67915 c 0.26587,0 0.488,-0.10845 0.66641,-0.32534 0.17841,-0.21689 0.26761,-0.51074 0.26761,-0.88155 0,-0.1889 -0.028,-0.35857 -0.084,-0.50899 -0.056,-0.15042 -0.12943,-0.27811 -0.22039,-0.38306 -0.091,-0.10495 -0.19765,-0.18366 -0.32009,-0.23613 -0.12244,-0.0525 -0.24663,-0.0787 -0.37256,-0.0787 h -1.61618 z"
         data-paper-data="{&quot;glyphName&quot;:&quot;P&quot;,&quot;glyphIndex&quot;:9,&quot;word&quot;:3}"
         id="path114" />
      <path
         d="m 270.34682,349.41683 c -0.049,-0.049 -0.13818,-0.11544 -0.26761,-0.1994 -0.12943,-0.084 -0.28685,-0.16617 -0.47226,-0.24663 -0.18541,-0.0805 -0.38655,-0.14867 -0.60344,-0.20465 -0.21689,-0.056 -0.43728,-0.084 -0.66117,-0.084 -0.3988,0 -0.69615,0.0735 -0.89205,0.22039 -0.1959,0.14693 -0.29385,0.35332 -0.29385,0.61919 0,0.15392 0.0367,0.28161 0.11019,0.38306 0.0735,0.10145 0.18016,0.19065 0.32009,0.26761 0.13993,0.077 0.31659,0.14693 0.52998,0.20989 0.21339,0.063 0.46002,0.12943 0.73988,0.1994 0.36382,0.098 0.6944,0.2029 0.99175,0.31484 0.29735,0.11194 0.54922,0.25187 0.75562,0.41979 0.2064,0.16792 0.36557,0.36906 0.47751,0.60344 0.11194,0.23438 0.16792,0.52299 0.16792,0.86581 0,0.3988 -0.0752,0.73988 -0.22564,1.02323 -0.15042,0.28336 -0.35332,0.51249 -0.60869,0.6874 -0.25537,0.17491 -0.54922,0.3026 -0.88155,0.38306 -0.33233,0.0805 -0.68041,0.12069 -1.04422,0.12069 -0.55972,0 -1.11244,-0.084 -1.65816,-0.25187 -0.54572,-0.16792 -1.03548,-0.40579 -1.46926,-0.71364 l 0.64018,-1.24887 c 0.063,0.063 0.17666,0.14518 0.34108,0.24663 0.16442,0.10145 0.35857,0.2029 0.58246,0.30435 0.22389,0.10145 0.47226,0.18716 0.74512,0.25712 0.27286,0.07 0.55272,0.10495 0.83958,0.10495 0.7976,0 1.19639,-0.25537 1.19639,-0.76611 0,-0.16092 -0.0455,-0.29735 -0.13643,-0.40929 -0.091,-0.11194 -0.22039,-0.20989 -0.3883,-0.29385 -0.16792,-0.084 -0.37081,-0.16092 -0.60869,-0.23088 -0.23788,-0.07 -0.50375,-0.14693 -0.7976,-0.23088 -0.35682,-0.098 -0.66641,-0.20465 -0.92878,-0.32009 -0.26237,-0.11544 -0.48101,-0.25187 -0.65592,-0.40929 -0.17491,-0.15742 -0.3061,-0.33933 -0.39355,-0.54572 -0.0875,-0.2064 -0.13118,-0.45302 -0.13118,-0.73988 0,-0.37781 0.07,-0.71364 0.20989,-1.00749 0.13993,-0.29385 0.33408,-0.53873 0.58246,-0.73463 0.24837,-0.1959 0.53698,-0.34458 0.86581,-0.44602 0.32883,-0.10145 0.68215,-0.15217 1.05996,-0.15217 0.52473,0 1.00749,0.0822 1.44827,0.24663 0.44078,0.16442 0.82558,0.35857 1.15442,0.58246 z"
         data-paper-data="{&quot;glyphName&quot;:&quot;S&quot;,&quot;glyphIndex&quot;:10,&quot;lastGlyphOfWord&quot;:true,&quot;word&quot;:3}"
         id="path116" />
      <path
         d="m 289.90772,353.64619 v 1.26986 h -5.17388 v -7.45123 h 5.07943 v 1.26986 h -3.63116 v 1.79459 h 3.13791 v 1.17541 h -3.13791 v 1.94152 z"
         data-paper-data="{&quot;glyphName&quot;:&quot;E&quot;,&quot;glyphIndex&quot;:11,&quot;firstGlyphOfWord&quot;:true,&quot;word&quot;:4}"
         id="path118" />
      <path
         d="m 302.21108,348.73467 h -2.38229 v 6.18137 h -1.43777 v -6.18137 h -2.38229 v -1.26986 h 6.20236 z"
         data-paper-data="{&quot;glyphName&quot;:&quot;T&quot;,&quot;glyphIndex&quot;:12,&quot;lastGlyphOfWord&quot;:true,&quot;word&quot;:4}"
         id="path120" />
      <path
         d="m 315.35556,354.91604 v -7.45123 h 2.70763 c 0.60869,0 1.14217,0.098 1.60044,0.29385 0.45827,0.1959 0.84132,0.46177 1.14917,0.7976 0.30784,0.33583 0.53873,0.72938 0.69265,1.18065 0.15392,0.45127 0.23088,0.93228 0.23088,1.44302 0,0.56671 -0.0857,1.0792 -0.25712,1.53747 -0.17141,0.45827 -0.41804,0.85007 -0.73988,1.17541 -0.32184,0.32534 -0.70839,0.57721 -1.15966,0.75562 -0.45127,0.17841 -0.95677,0.26761 -1.51648,0.26761 z m 4.92201,-3.73611 c 0,-0.35682 -0.049,-0.68565 -0.14693,-0.9865 -0.098,-0.30085 -0.24138,-0.55972 -0.43028,-0.77661 -0.1889,-0.21689 -0.42154,-0.38481 -0.6979,-0.50375 -0.27636,-0.11894 -0.58945,-0.17841 -0.93927,-0.17841 h -1.25936 v 4.91151 h 1.25936 c 0.35682,0 0.67341,-0.063 0.94977,-0.1889 0.27636,-0.12594 0.50724,-0.2991 0.69265,-0.51949 0.18541,-0.22039 0.32708,-0.48101 0.42503,-0.78185 0.0979,-0.30085 0.14693,-0.62618 0.14693,-0.97601 z"
         data-paper-data="{&quot;glyphName&quot;:&quot;D&quot;,&quot;glyphIndex&quot;:13,&quot;firstGlyphOfWord&quot;:true,&quot;word&quot;:5}"
         id="path122" />
      <path
         d="m 333.93356,353.64619 v 1.26986 h -5.17388 v -7.45123 h 5.07943 v 1.26986 h -3.63116 v 1.79459 h 3.13791 v 1.17541 h -3.13791 v 1.94152 z"
         data-paper-data="{&quot;glyphName&quot;:&quot;E&quot;,&quot;glyphIndex&quot;:14,&quot;lastGlyphOfWord&quot;:true,&quot;word&quot;:5}"
         id="path124" />
      <path
         d="m 347.34679,354.91604 v -7.45123 h 1.44827 v 6.18137 h 3.79908 v 1.26986 z"
         data-paper-data="{&quot;glyphName&quot;:&quot;L&quot;,&quot;glyphIndex&quot;:15,&quot;firstGlyphOfWord&quot;:true,&quot;word&quot;:6}"
         id="path126" />
      <path
         d="m 356.80507,349.67919 v -2.35081 h 1.19639 v 2.35081 z"
         data-paper-data="{&quot;glyphName&quot;:&quot;'&quot;,&quot;glyphIndex&quot;:16,&quot;word&quot;:6}"
         id="path128" />
      <path
         d="m 369.52734,353.64619 v 1.26986 h -5.17388 v -7.45123 h 5.07943 v 1.26986 h -3.63116 v 1.79459 h 3.13791 v 1.17541 h -3.13791 v 1.94152 z"
         data-paper-data="{&quot;glyphName&quot;:&quot;E&quot;,&quot;glyphIndex&quot;:17,&quot;word&quot;:6}"
         id="path130" />
      <path
         d="m 380.44585,349.41683 c -0.049,-0.049 -0.13818,-0.11544 -0.26761,-0.1994 -0.12943,-0.084 -0.28685,-0.16617 -0.47226,-0.24663 -0.18541,-0.0805 -0.38655,-0.14867 -0.60344,-0.20465 -0.21689,-0.056 -0.43728,-0.084 -0.66117,-0.084 -0.3988,0 -0.69615,0.0735 -0.89205,0.22039 -0.1959,0.14693 -0.29385,0.35332 -0.29385,0.61919 0,0.15392 0.0367,0.28161 0.11019,0.38306 0.0735,0.10145 0.18016,0.19065 0.32009,0.26761 0.13993,0.077 0.31659,0.14693 0.52998,0.20989 0.21339,0.063 0.46002,0.12943 0.73988,0.1994 0.36382,0.098 0.6944,0.2029 0.99175,0.31484 0.29735,0.11194 0.54922,0.25187 0.75562,0.41979 0.2064,0.16792 0.36557,0.36906 0.47751,0.60344 0.11194,0.23438 0.16792,0.52299 0.16792,0.86581 0,0.3988 -0.0752,0.73988 -0.22564,1.02323 -0.15042,0.28336 -0.35332,0.51249 -0.60869,0.6874 -0.25537,0.17491 -0.54922,0.3026 -0.88155,0.38306 -0.33233,0.0805 -0.68041,0.12069 -1.04422,0.12069 -0.55972,0 -1.11244,-0.084 -1.65816,-0.25187 -0.54572,-0.16792 -1.03548,-0.40579 -1.46926,-0.71364 l 0.64018,-1.24887 c 0.063,0.063 0.17666,0.14518 0.34108,0.24663 0.16442,0.10145 0.35857,0.2029 0.58246,0.30435 0.22389,0.10145 0.47226,0.18716 0.74512,0.25712 0.27286,0.07 0.55272,0.10495 0.83958,0.10495 0.7976,0 1.19639,-0.25537 1.19639,-0.76611 0,-0.16092 -0.0455,-0.29735 -0.13643,-0.40929 -0.0909,-0.11194 -0.22039,-0.20989 -0.3883,-0.29385 -0.16792,-0.084 -0.37081,-0.16092 -0.60869,-0.23088 -0.23788,-0.07 -0.50375,-0.14693 -0.7976,-0.23088 -0.35682,-0.098 -0.66641,-0.20465 -0.92878,-0.32009 -0.26237,-0.11544 -0.48101,-0.25187 -0.65592,-0.40929 -0.17491,-0.15742 -0.3061,-0.33933 -0.39355,-0.54572 -0.0875,-0.2064 -0.13118,-0.45302 -0.13118,-0.73988 0,-0.37781 0.07,-0.71364 0.20989,-1.00749 0.13993,-0.29385 0.33408,-0.53873 0.58246,-0.73463 0.24837,-0.1959 0.53698,-0.34458 0.86581,-0.44602 0.32883,-0.10145 0.68215,-0.15217 1.05996,-0.15217 0.52473,0 1.00749,0.0822 1.44827,0.24663 0.44078,0.16442 0.82558,0.35857 1.15442,0.58246 z"
         data-paper-data="{&quot;glyphName&quot;:&quot;S&quot;,&quot;glyphIndex&quot;:18,&quot;word&quot;:6}"
         id="path132" />
      <path
         d="m 388.2849,354.91604 v -7.45123 h 3.1589 c 0.34283,0 0.65942,0.0717 0.94977,0.21514 0.29035,0.14343 0.54048,0.33233 0.75037,0.56671 0.20989,0.23438 0.37431,0.50025 0.49325,0.7976 0.11894,0.29735 0.17841,0.59645 0.17841,0.8973 0,0.31484 -0.056,0.62094 -0.16792,0.91829 -0.11194,0.29735 -0.26936,0.56147 -0.47226,0.79235 -0.2029,0.23088 -0.44777,0.41629 -0.73463,0.55622 -0.28685,0.13993 -0.6017,0.20989 -0.94452,0.20989 h -1.76311 v 2.49774 z m 1.44827,-3.76759 h 1.67915 c 0.26587,0 0.488,-0.10845 0.66641,-0.32534 0.17841,-0.21689 0.26761,-0.51074 0.26761,-0.88155 0,-0.1889 -0.028,-0.35857 -0.084,-0.50899 -0.056,-0.15042 -0.12943,-0.27811 -0.22039,-0.38306 -0.091,-0.10495 -0.19765,-0.18366 -0.32009,-0.23613 -0.12244,-0.0525 -0.24663,-0.0787 -0.37256,-0.0787 h -1.61618 z"
         data-paper-data="{&quot;glyphName&quot;:&quot;P&quot;,&quot;glyphIndex&quot;:19,&quot;word&quot;:6}"
         id="path134" />
      <path
         d="m 400.66174,354.91604 v -7.45123 h 3.29533 c 0.34283,0 0.65942,0.0717 0.94977,0.21514 0.29035,0.14343 0.54048,0.33233 0.75037,0.56671 0.20989,0.23438 0.37431,0.50025 0.49325,0.7976 0.11894,0.29735 0.17841,0.59645 0.17841,0.8973 0,0.48276 -0.12069,0.92178 -0.36207,1.31708 -0.24138,0.3953 -0.56846,0.68041 -0.98125,0.85532 l 1.70014,2.80208 h -1.62668 l -1.52173,-2.49774 H 402.11 v 2.49774 z m 1.44826,-3.76759 h 1.81558 c 0.13293,0 0.25712,-0.0315 0.37256,-0.0945 0.11544,-0.063 0.21514,-0.14867 0.2991,-0.25712 0.084,-0.10845 0.15042,-0.23613 0.1994,-0.38306 0.049,-0.14693 0.0735,-0.30435 0.0735,-0.47226 0,-0.17491 -0.028,-0.33583 -0.084,-0.48276 -0.056,-0.14693 -0.13118,-0.27461 -0.22564,-0.38306 -0.0944,-0.10845 -0.2029,-0.1924 -0.32534,-0.25187 -0.12244,-0.0595 -0.24663,-0.0892 -0.37256,-0.0892 h -1.75261 z"
         data-paper-data="{&quot;glyphName&quot;:&quot;R&quot;,&quot;glyphIndex&quot;:20,&quot;word&quot;:6}"
         id="path136" />
      <path
         d="m 412.62699,354.91604 v -7.45123 h 1.44827 v 7.45123 z"
         data-paper-data="{&quot;glyphName&quot;:&quot;I&quot;,&quot;glyphIndex&quot;:21,&quot;word&quot;:6}"
         id="path138" />
      <path
         d="m 426.21094,348.73467 h -2.38229 v 6.18137 h -1.43777 v -6.18137 h -2.38229 v -1.26986 h 6.20236 z"
         data-paper-data="{&quot;glyphName&quot;:&quot;T&quot;,&quot;glyphIndex&quot;:22,&quot;lastGlyphOfWord&quot;:true,&quot;word&quot;:6}"
         id="path140" />
    </g>
  </g>
</svg>
